<?xml version="1.0" encoding="UTF-8"?>
<svg id="Layer_1" data-name="Layer 1" xmlns="http://www.w3.org/2000/svg" viewBox="0 0 387.6 75">
  <defs>
    <style>
      .cls-1 {
        fill: #fff;
      }
    </style>
  </defs>
  <g>
    <path class="cls-1" d="M10.17,13.69c-.88,0-1.33.02-2.02.09.07-.58.11-1.03.11-1.76v-3.96c0-.76-.04-1.19-.11-1.73.7.07,1.1.09,1.98.09h7.54c.95,0,1.4-.02,2.11-.09-.07.54-.11.97-.11,1.67v4.12c0,.7.02,1.12.11,1.66-.68-.07-1.13-.09-2-.09h-3.51v2.36h5.64c.79,0,1.31-.04,1.82-.11v1.08c-.5-.07-1.04-.11-1.82-.11h-5.64v2.99c0,.99.04,1.57.13,2.02h-1.19c.07-.4.11-.97.11-2.02v-2.99h-5.28c-.76,0-1.3.04-1.82.11v-1.08c.49.07,1.03.11,1.82.11h5.28v-2.36h-3.15ZM9.18,9.59h9.58v-2.32h-9.58v2.32ZM9.18,12.87h9.58v-2.45h-9.58v2.45Z"/>
    <path class="cls-1" d="M26.56,7.41c-.77.22-1.13.31-2.14.5-.13-.29-.23-.47-.47-.79,1.67-.25,3.24-.67,4.18-1.13.31-.14.49-.27.7-.43l.67.72q-1.28.61-2.07.86v3.1h.79c.67,0,.99-.02,1.33-.07v.94c-.4-.05-.72-.07-1.35-.07h-.76c.45,1.39.92,2.23,1.89,3.29-.23.2-.38.41-.56.72-.74-1.03-1.08-1.71-1.44-2.88.05,1.1.09,2.05.09,2.88v4.7c0,.9.04,1.44.11,2.05h-1.08c.07-.63.11-1.17.11-2.03v-4.47c0-.79.04-2.02.09-3.01-.5,2.12-1.28,3.78-2.45,5.31-.16-.31-.36-.56-.59-.77,1.24-1.4,2.3-3.57,2.81-5.8h-.95c-.58,0-1.04.04-1.49.09v-.97c.43.07.88.09,1.51.09h1.08v-2.83ZM39.24,6.46q-.32.09-.79.2c-.05.02-.18.05-.36.09-2.67.74-5.28,1.17-8.34,1.39-.09-.36-.18-.56-.38-.86,3.33-.13,7.6-.88,9.15-1.62l.72.81ZM31.1,12.51c-.07.41-.09.79-.09,1.49v6.32c0,.74.02,1.12.09,1.51h-1.06c.07-.43.09-.81.09-1.53v-6.3c0-.68-.02-1.04-.09-1.49h1.06ZM31.73,11.88c-.4-1.21-.76-1.98-1.44-3.06l.77-.34c.67,1.08,1.03,1.8,1.48,3.01l-.81.4ZM32.97,13.89c0-.54-.02-.94-.07-1.33.47.05.83.07,1.57.07h3.29c.74,0,1.15-.02,1.58-.07-.05.38-.07.79-.07,1.4v6c0,.92.02,1.4.09,1.85h-.95v-.92h-4.57v.92h-.95c.07-.45.09-.99.09-1.84v-6.09ZM34.47,11.64c-.29-1.26-.58-2.12-1.08-3.17l.81-.25c.61,1.31.77,1.76,1.13,3.13l-.86.29ZM33.84,16.25h4.57v-2.81h-4.57v2.81ZM33.84,20.09h4.57v-3.04h-4.57v3.04ZM36.63,11.7c.99-1.44,1.46-2.43,2-4.18l.86.47c-.72,1.76-1.21,2.68-2.12,4.09l-.74-.38Z"/>
    <path class="cls-1" d="M55.73,21.58v-1.12h-12.12v1.12h-1.04c.07-.67.11-1.22.11-2.03v-11.13c0-.67-.02-1.17-.09-1.78.68.07,1.26.09,2.05.09h10.08c.77,0,1.37-.02,2.05-.09-.07.58-.09,1.08-.09,1.76v11.15c0,.79.04,1.39.11,2.03h-1.06ZM43.61,12.94h5.38v-5.37h-5.38v5.37ZM43.61,19.62h5.38v-5.85h-5.38v5.85ZM49.93,12.94h5.8v-5.37h-5.8v5.37ZM49.93,19.62h5.8v-5.85h-5.8v5.85Z"/>
    <path class="cls-1" d="M67.73,10.98c.65,2.56,1.64,4.48,3.17,6.21,1.31,1.49,2.75,2.54,4.74,3.4-.31.36-.43.54-.67.97-4.18-2.21-6.41-4.92-7.69-9.27-.36,2.34-1.28,4.34-2.74,6-1.21,1.39-2.56,2.34-4.7,3.31-.22-.38-.36-.59-.65-.88,1.22-.52,1.84-.83,2.59-1.35,2.84-1.87,4.25-4.39,4.74-8.39h-5.1c-.9,0-1.4.04-1.91.13v-1.17c.45.09,1.03.13,1.96.13h5.11c.05-.81.07-1.24.07-2.32,0-.68-.04-1.35-.13-1.82h1.24c-.07.59-.11,1.04-.13,1.82-.02.95-.04,1.57-.09,2.32h5.65c.88,0,1.46-.04,1.91-.13v1.17c-.52-.09-1.04-.13-1.89-.13h-5.51Z"/>
    <path class="cls-1" d="M85.84,20.46c0,1.03-.31,1.22-1.84,1.22-.63,0-1.42-.04-2.12-.09-.11-.47-.16-.63-.32-.95.94.11,1.8.18,2.41.18.81,0,.94-.05.94-.43v-3.87h-5.53c-.76,0-1.26.04-1.82.11v-1.04c.52.07,1.04.11,1.8.11h5.55v-.36c0-.36-.02-.67-.05-1.08h.76c1.4-.65,2.36-1.24,3.53-2.18h-7.04c-.56,0-1.21.04-1.67.09v-.97c.5.05,1.08.09,1.71.09h6.66c.65,0,1.01-.02,1.31-.07l.59.61c-1.93,1.6-2.75,2.12-4.86,3.15v.72h5.51c.77,0,1.3-.04,1.82-.11v1.04c-.5-.07-1.06-.11-1.82-.11h-5.51v3.94ZM81.25,8.6c-.45-.79-.92-1.42-1.78-2.39l.92-.29c.83,1.03,1.21,1.57,1.87,2.68h2.81c-.38-.99-.7-1.64-1.39-2.68l.95-.25c.68,1.24,1.04,1.96,1.39,2.94h2.09c.94-1.06,1.42-1.8,1.94-2.95l.94.49c-.76,1.15-1.21,1.76-1.82,2.47h1.55c.94,0,1.4-.02,2.03-.07-.05.43-.07.79-.07,1.46v1.26c0,.4.04.83.09,1.24h-.99v-3.11h-12.95v3.11h-.99c.05-.4.09-.85.09-1.24v-1.26c0-.63-.02-.99-.07-1.46.63.05,1.1.07,2.03.07h1.35Z"/>
    <path class="cls-1" d="M97.95,19.13q-1.42.02-1.87.05v-1.17c.58.11.85.13,1.89.13h8.66v-8.91h-8.26c-1.01,0-1.39.02-2,.09v-1.21c.59.11.9.13,2,.13h8.46c.25,0,.49-.02.94-.04-.04.47-.04.79-.04,1.39v9.02q.04,1.28.07,1.6h-1.17v-1.1l-8.68.02Z"/>
    <path class="cls-1" d="M111.42,19.11c1.3-.02,3.55-.61,5.22-1.39,3.49-1.58,5.92-4.23,7.36-8.01.36.47.5.61.9.86-1.6,3.53-3.66,5.89-6.54,7.53-1.69.95-3.13,1.46-5.96,2.07-.27.07-.4.11-.67.2l-.32-1.26ZM112.46,7.95c1.89,1.22,2.99,2.09,4.27,3.39l-.76.88c-1.28-1.37-2.68-2.54-4.23-3.49l.72-.77Z"/>
    <path class="cls-1" d="M129.49,12.85c1.8-.32,3.87-.99,5.8-1.85,1.48-.68,2.3-1.17,2.84-1.69l.79,1.01c-.31.13-.34.14-.77.4-2.79,1.55-5.42,2.48-8.66,3.1v3.01c0,1.3.07,1.73.38,2.05.25.27.67.41,1.42.5.58.07,1.44.11,2.18.11,1.08,0,2.68-.11,4.1-.29.76-.09,1.08-.16,1.73-.34l.11,1.19-1.33.13c-1.51.18-3.66.29-5.06.29-2.09,0-3.24-.22-3.87-.74-.41-.34-.61-.85-.7-1.69l-.04-1.33v-8.28c0-.68-.02-1.03-.07-1.46h1.24c-.07.49-.09.72-.09,1.48v4.43ZM142.27,7.34c0,1.1-.88,1.98-1.98,1.98s-1.98-.88-1.98-1.98.88-1.98,1.98-1.98,1.98.88,1.98,1.98ZM138.98,7.34c0,.72.59,1.31,1.31,1.31s1.31-.59,1.31-1.31-.59-1.31-1.31-1.31-1.31.59-1.31,1.31Z"/>
    <path class="cls-1" d="M154.1,19.62c.85,0,1.17-.02,1.62-.11v1.12c-.41-.07-.88-.09-1.62-.09h-8.71c-.72,0-1.21.02-1.62.09v-1.12c.47.09.77.11,1.62.11h5.51c.43-2.02.86-4.68,1.03-6.3h-4.9c-1.03,0-1.12.02-1.58.07v-1.08c.43.07.88.11,1.6.11h4.88c.4,0,.5-.02.74-.11l.47.43c-.11.2-.13.27-.18.54q-.04.22-.49,3.22c-.13.86-.27,1.66-.56,3.11h2.2Z"/>
    <path class="cls-1" d="M158.9,13.05c.49.07.77.09,1.98.09h10.77c1.24,0,1.46-.02,1.96-.09v1.21c-.49-.05-.81-.07-1.96-.07h-10.77c-1.22,0-1.49.02-1.98.07v-1.21Z"/>
    <path class="cls-1" d="M183.24,6.1c-.22.32-.23.38-.54.99-.29.61-.5.99-.7,1.28.18-.04.34-.05.61-.05l5.17-.05c.36,0,.67-.05.9-.16l.7.7c-.18.27-.23.38-.52,1.17-1.22,3.31-2.83,5.92-4.74,7.72-1.49,1.42-3.24,2.56-5.6,3.64-.23-.43-.36-.59-.74-.92,1.55-.59,2.54-1.13,3.78-2,1.46-1.03,2.29-1.78,3.17-2.95-1.3-1.17-2.68-2.18-4.12-2.99l.68-.74c1.55.9,2.58,1.62,4.07,2.88,1.12-1.67,1.98-3.49,2.65-5.47l-6.46.09c-1.24,1.96-2.52,3.39-4.3,4.77-.32-.36-.47-.47-.88-.7,1.93-1.37,3.44-3.04,4.61-5.13.59-1.06.94-1.82,1.08-2.45l1.19.38Z"/>
    <path class="cls-1" d="M192.45,13.05c.49.07.77.09,1.98.09h10.77c1.24,0,1.46-.02,1.96-.09v1.21c-.49-.05-.81-.07-1.96-.07h-10.77c-1.22,0-1.49.02-1.98.07v-1.21Z"/>
    <path class="cls-1" d="M211.51,7.25c-.74,0-1.04.02-1.57.11v-1.04c.45.09.85.11,1.58.11h2.86c.7,0,1.03-.02,1.48-.11v1.01c-.47-.05-.83-.07-1.42-.07h-1.17c-.31,2.03-.56,2.94-1.28,4.72h2.25c.63,0,.79,0,1.13-.05-.05.43-.05.63-.05,1.46v5.42c0,.68.02,1.1.07,1.55h-.99v-.92h-2.34v1.93h-1.03c.09-.45.11-.88.11-1.71v-4.18c0-.65.02-1.21.07-2.11-.34.81-.72,1.42-1.4,2.34-.22-.36-.4-.59-.65-.79,1.84-2.16,2.72-4.27,3.17-7.65h-.83ZM212.07,18.63h2.36v-5.89h-2.36v5.89ZM218.34,7.23c-.7,0-1.22.04-1.73.11v-1.04c.43.07.97.11,1.76.11h5.82c.77,0,1.3-.04,1.78-.11v1.04c-.49-.07-1.03-.11-1.75-.11h-.56v5.19h.7c.79,0,1.31-.04,1.8-.11v1.06c-.52-.07-1.03-.11-1.8-.11h-.7v6.63c0,.67.04,1.21.13,1.85h-1.19c.09-.67.13-1.19.13-1.85v-6.63h-3.19c-.2,4.12-1.03,6.45-3.1,8.68-.27-.32-.52-.52-.86-.68,1.21-1.12,1.96-2.34,2.43-3.94.32-1.08.49-2.23.58-4.05h-.65c-.76,0-1.28.04-1.76.11v-1.06c.49.07.97.11,1.76.11h.68v-5.19h-.29ZM219.58,11.71v.7h3.15v-5.19h-3.15v4.48Z"/>
    <path class="cls-1" d="M237.35,14.61c.9,0,1.39-.02,2.05-.09q-.05.41-.07,1.58l-.07,3.69c-.02.5.23.59,1.71.59,1.33,0,1.73-.09,1.87-.41.14-.36.27-1.42.31-2.65.38.22.59.31.97.41-.31,3.44-.38,3.53-3.19,3.53-2.18,0-2.63-.22-2.63-1.37v-.07l.07-4.34h-3.51c-.25,1.1-.65,1.98-1.24,2.79-.45.63-1.03,1.19-1.75,1.73-.97.7-1.71,1.08-3.33,1.69-.18-.36-.32-.54-.68-.85,1.78-.56,2.67-.97,3.69-1.76,1.24-.94,1.96-2.03,2.36-3.6h-2.93c-.92,0-1.44.04-1.93.11v-1.1c.47.07.95.11,1.89.11h3.15c.11-.68.14-1.12.14-1.71,0-.25-.04-.56-.07-.86l1.17.04c-.09.34-.11.49-.14,1.04-.05.61-.09,1.01-.16,1.49h2.32ZM235.2,7.01c0-.58-.04-.94-.13-1.35h1.19c-.09.41-.13.76-.13,1.35v.59h5.4c.59,0,1.1-.02,1.76-.09-.05.38-.07.72-.07,1.22v.81c0,.56.02.88.07,1.22h-.97v-2.32h-4.72v2.77c0,.23.04.32.13.38.18.09.59.13,1.37.13,1.15,0,1.53-.07,1.66-.34.11-.2.2-.74.22-1.39.34.18.54.25.86.34-.18,2.02-.41,2.2-2.75,2.2-1.96,0-2.36-.16-2.36-.9v-3.19h-2.39c-.13.92-.23,1.33-.54,1.91-.59,1.1-1.46,1.8-2.92,2.38-.41.16-.77.27-1.66.52-.14-.27-.31-.5-.58-.83,1.31-.23,1.87-.41,2.61-.77,1.19-.59,1.94-1.6,2.12-2.83,0-.07.02-.13.04-.38h-4.09v2.32h-.97c.05-.38.07-.7.07-1.22v-.81c0-.5-.02-.85-.07-1.22.65.07,1.17.09,1.76.09h5.08v-.59Z"/>
    <path class="cls-1" d="M254.21,5.68c.83,1.3,1.62,2.18,2.99,3.28,1.57,1.28,3.35,2.32,5.08,3.01-.31.32-.49.59-.63.92-1.93-.94-3.66-2.03-5.1-3.26-1.17-.99-2.02-1.89-2.84-3.08-.88,1.24-1.57,2-2.63,2.95-1.55,1.39-3.08,2.41-4.95,3.29-.18-.32-.41-.59-.68-.81,1.96-.9,3.28-1.73,4.83-3.04,1.28-1.08,2.07-2,2.88-3.26h1.06ZM248.23,15.62c-.9,0-1.49.04-2.03.11v-1.08c.54.07,1.12.11,2.03.11h11.06c.94,0,1.49-.04,2.03-.11v1.08c-.54-.07-1.13-.11-2.03-.11h-6.5q-.14.32-.45.97c-.52,1.15-1.17,2.34-1.89,3.49,2.95-.22,4.27-.36,7.31-.74-.9-.99-1.48-1.57-2.3-2.32l.76-.5c1.93,1.82,2.93,2.92,4.39,4.75l-.79.65c-.68-.94-.92-1.24-1.39-1.84-3.82.52-5.31.68-10.68,1.12-.43.04-.83.09-1.12.16l-.2-1.13c.27.04.61.05.9.05.09,0,.76-.04,2-.13,1.12-1.78,1.57-2.67,2.38-4.54h-3.48ZM249.44,11.34c.31.05.74.07,1.39.07h5.76c.7,0,1.08-.02,1.48-.07v1.01c-.36-.05-.81-.07-1.48-.07h-5.78c-.58,0-1.04.02-1.37.07v-1.01Z"/>
    <path class="cls-1" d="M276.76,6.82l-6.48,16.35h-1.12l6.48-16.35h1.12Z"/>
    <path class="cls-1" d="M291.33,10.38c-.05.29-.05.32-.07.86-.05,2.81-.34,4.25-1.12,5.65-.63,1.13-1.58,2.12-2.79,2.92-.74.47-1.35.76-2.49,1.19-.22-.47-.31-.63-.67-.99,1.48-.45,2.39-.9,3.33-1.67,1.46-1.19,2.21-2.54,2.5-4.52.11-.79.16-1.57.16-2.5,0-.49-.02-.59-.07-.94h1.21ZM298.4,8.09q-.18.23-.41.68c-1.26,2.39-2.97,4.02-5.29,5.04-.22-.41-.34-.54-.68-.88,1.28-.47,2.02-.9,2.9-1.71.86-.79,1.57-1.73,2.11-2.79h-10.44c-.92,0-1.42.02-2.04.09v-1.15c.61.09,1.08.11,2.05.11h9.74q1.17,0,1.46-.11l.61.72Z"/>
    <path class="cls-1" d="M311.78,8.08c-.09-.22-.13-.45-.13-.7,0-1.1.88-1.98,1.98-1.98s1.98.88,1.98,1.98-.88,1.98-1.98,1.98c-.25,0-.49-.05-.7-.13-.04.13-.09.32-.22.74-.95,3.22-2.27,5.53-4.47,7.51-1.67,1.51-3.24,2.43-5.62,3.31-.22-.47-.34-.63-.7-1.01,1.62-.49,2.72-.99,4.11-1.93,2.99-2.02,4.66-4.59,5.73-8.79h-9.33c-.81,0-1.37.04-1.94.11v-1.21c.67.09,1.03.11,1.96.11h9.33ZM312.32,7.37c0,.72.59,1.31,1.31,1.31s1.31-.59,1.31-1.31-.59-1.31-1.31-1.31-1.31.59-1.31,1.31Z"/>
    <path class="cls-1" d="M319.44,6.73c-.05.43-.07.65-.07,1.46v4.81c0,.83.02,1.04.07,1.46h-1.24c.05-.4.07-.77.07-1.48v-4.77c0-.76-.02-1.04-.07-1.48h1.24ZM327.36,6.73c-.07.4-.09.7-.09,1.53v2.03c0,3.01-.13,4.47-.43,5.53-.52,1.66-1.66,2.95-3.4,3.94-.86.49-1.73.83-3.21,1.26-.18-.43-.27-.58-.63-.99,1.55-.34,2.48-.68,3.49-1.3,1.6-.97,2.47-2.14,2.83-3.78.2-.9.27-1.96.27-3.67l-.02-1.04v-1.96c0-1.1,0-1.12-.07-1.55h1.26Z"/>
    <path class="cls-1" d="M338.13,12.43c.02-.47.05-1.66.05-3.56-1.87.34-2.7.41-5.4.54-.09-.4-.14-.54-.38-1.01.52.02.77.04,1.04.04,2.23,0,5.28-.47,7.51-1.15,1.01-.32,1.48-.52,2.04-.88l.77.97q-.22.05-.61.2c-1.35.49-2.47.81-3.91,1.1-.02,2.4-.02,2.88-.05,3.76h4.45c.97,0,1.21-.02,1.82-.13v1.15c-.63-.07-.96-.09-1.82-.09h-4.52c-.16,1.78-.47,2.83-1.17,4-.94,1.57-2.27,2.68-4.45,3.76-.27-.43-.4-.58-.83-.9,2.07-.81,3.46-1.87,4.36-3.37.61-1.01.9-2.02,1.03-3.49h-5.22c-.86,0-1.19.02-1.82.09v-1.15c.59.11.83.13,1.82.13h5.29Z"/>
    <path class="cls-1" d="M348.01,13.05c.49.07.77.09,1.98.09h10.77c1.24,0,1.46-.02,1.96-.09v1.21c-.49-.05-.81-.07-1.96-.07h-10.77c-1.22,0-1.49.02-1.98.07v-1.21Z"/>
    <path class="cls-1" d="M371.59,6.64c-.18.34-.27.59-.47,1.24-1.22,4.12-2.61,7.94-3.82,10.68,2.74-.22,6.39-.7,9.11-1.21-.99-1.93-1.98-3.56-2.88-4.77l.92-.45c1.55,2.14,3.19,5.06,4.52,8.03l-1.03.58c-.43-1.06-.65-1.55-1.1-2.48-3.35.65-5.87.99-11.15,1.51-.94.09-1.21.13-1.51.2l-.14-1.24c.22.02.34.02.45.02.25,0,.83-.04,1.6-.09,1.08-2.47,1.87-4.5,2.72-7.11.9-2.74,1.31-4.21,1.46-5.24l1.31.34Z"/>
  </g>
  <g>
    <path class="cls-1" d="M35.45,63.65l-6.19-13.18-6,13.18-14.13-30.17h6.8l4.67,10.15c.34.72,1.1,1.25,1.94,1.25,1.14,0,2.09-.95,2.09-2.13,0-.27-.04-.57-.19-.84l-3.76-8.44h7.22l4.71,10.22c.34.72,1.1,1.25,1.94,1.25,1.14,0,2.09-.99,2.09-2.13,0-.3-.04-.57-.19-.83l-3.8-8.51h16.53l-13.72,30.17Z"/>
    <path class="cls-1" d="M53.35,62.13v-28.76h8.66v28.76h-8.66Z"/>
    <path class="cls-1" d="M80.29,62.25v-6.27c0-1.25-1.06-2.28-2.32-2.28s-2.28,1.06-2.28,2.32v6.23h-5.7v-28.72h.19l17.29,15.84-.04-8.78-7.75-7.07h13.75v28.72h-13.15Z"/>
    <path class="cls-1" d="M114.42,62.29v-.04c-7.94-.19-14.32-6.65-14.32-14.63s6.35-14.44,14.32-14.63v-.04h5.02v9.08l-6.12-4.79v17.02h6.12v8.02h-5.02Z"/>
  </g>
  <g>
    <path class="cls-1" d="M142.28,30.76h5.27l12.49,31.41h-5.11l-3.49-9.41h-13.62l-3.73,9.41h-4.78l12.96-31.41ZM149.94,49.3l-5.23-13.88-5.55,13.88h10.78Z"/>
    <path class="cls-1" d="M161.21,39.38h4.13v3.04c.85-1.04,1.77-1.85,2.77-2.42,1.42-.85,3.1-1.28,5.03-1.28,2.85,0,5.27.99,7.26,2.98,1.99,1.99,2.98,4.83,2.98,8.52,0,4.99-1.44,8.55-4.31,10.69-1.82,1.35-3.94,2.03-6.35,2.03-1.9,0-3.49-.38-4.78-1.13-.75-.43-1.59-1.16-2.52-2.2v11.7h-4.22v-31.92ZM177.09,57.33c1.31-1.5,1.96-3.75,1.96-6.75,0-1.82-.29-3.39-.87-4.7-1.1-2.52-3.1-3.78-6.02-3.78s-4.94,1.33-6.02,4c-.58,1.43-.87,3.24-.87,5.43,0,1.77.29,3.27.87,4.51,1.1,2.37,3.11,3.55,6.02,3.55,1.97,0,3.62-.75,4.93-2.26Z"/>
    <path class="cls-1" d="M185.75,39.38h4.12v3.04c.85-1.04,1.77-1.85,2.77-2.42,1.42-.85,3.1-1.28,5.03-1.28,2.85,0,5.27.99,7.26,2.98s2.98,4.83,2.98,8.52c0,4.99-1.44,8.55-4.31,10.69-1.82,1.35-3.94,2.03-6.35,2.03-1.9,0-3.49-.38-4.78-1.13-.75-.43-1.59-1.16-2.52-2.2v11.7h-4.22v-31.92ZM201.62,57.33c1.31-1.5,1.96-3.75,1.96-6.75,0-1.82-.29-3.39-.87-4.7-1.1-2.52-3.1-3.78-6.02-3.78s-4.94,1.33-6.02,4c-.58,1.43-.87,3.24-.87,5.43,0,1.77.29,3.27.87,4.51,1.1,2.37,3.1,3.55,6.02,3.55,1.98,0,3.62-.75,4.93-2.26Z"/>
    <path class="cls-1" d="M210.75,30.76h4.22v31.41h-4.22v-31.41Z"/>
    <path class="cls-1" d="M219.14,30.76h4.29v4.36h-4.29v-4.36ZM219.14,39.38h4.29v22.79h-4.29v-22.79Z"/>
    <path class="cls-1" d="M244.23,40.49c1.77,1.25,2.84,3.41,3.2,6.48h-4.1c-.25-1.41-.82-2.58-1.71-3.52s-2.32-1.4-4.29-1.4c-2.69,0-4.61,1.2-5.77,3.59-.75,1.55-1.12,3.47-1.12,5.74s.53,4.22,1.59,5.79c1.06,1.57,2.73,2.35,5.02,2.35,1.75,0,3.14-.49,4.16-1.46s1.73-2.3,2.12-3.99h4.1c-.47,3.04-1.64,5.26-3.52,6.66-1.88,1.4-4.27,2.11-7.2,2.11-3.28,0-5.9-1.09-7.85-3.28s-2.93-4.92-2.93-8.2c0-4.02,1.07-7.15,3.21-9.39,2.14-2.24,4.87-3.36,8.18-3.36,2.83,0,5.13.63,6.9,1.88Z"/>
    <path class="cls-1" d="M262.94,48.31c.97-.11,1.62-.48,1.95-1.11.19-.34.28-.84.28-1.48,0-1.32-.51-2.27-1.53-2.87-1.02-.59-2.48-.89-4.39-.89-2.2,0-3.76.54-4.68,1.63-.51.6-.85,1.5-1.01,2.69h-3.94c.08-2.83,1.08-4.8,3.01-5.91,1.93-1.11,4.16-1.66,6.71-1.66,2.95,0,5.35.51,7.19,1.54,1.83,1.03,2.74,2.62,2.74,4.79v13.19c0,.4.09.72.27.96.18.24.56.36,1.14.36.19,0,.4-.01.63-.03s.48-.05.75-.1v2.84c-.66.17-1.16.28-1.5.32s-.81.06-1.41.06c-1.45,0-2.51-.47-3.16-1.41-.34-.5-.59-1.2-.73-2.12-.86,1.03-2.09,1.92-3.7,2.67s-3.38,1.13-5.32,1.13c-2.33,0-4.23-.64-5.71-1.93s-2.21-2.9-2.21-4.84c0-2.12.73-3.77,2.18-4.93s3.36-1.89,5.72-2.16l6.73-.77ZM254.05,58.71c.89.64,1.95.96,3.16.96,1.48,0,2.92-.31,4.31-.94,2.34-1.04,3.52-2.74,3.52-5.1v-3.1c-.51.3-1.18.55-1.99.75s-1.61.34-2.39.43l-2.55.3c-1.53.18-2.68.48-3.45.88-1.3.67-1.96,1.74-1.96,3.2,0,1.11.45,1.98,1.34,2.62Z"/>
    <path class="cls-1" d="M274.86,32.88h4.27v6.39h4.01v3.14h-4.01v14.95c0,.8.3,1.33.89,1.6.33.16.88.24,1.64.24.2,0,.42,0,.66-.01.23,0,.51-.03.82-.07v3.06c-.48.13-.99.22-1.51.28-.52.06-1.09.08-1.7.08-1.97,0-3.3-.46-4.01-1.38s-1.05-2.11-1.05-3.58v-15.16h-3.4v-3.14h3.4v-6.39Z"/>
    <path class="cls-1" d="M285.2,30.76h4.29v4.36h-4.29v-4.36ZM285.2,39.38h4.29v22.79h-4.29v-22.79Z"/>
    <path class="cls-1" d="M311.89,41.56c2.22,1.97,3.33,4.86,3.33,8.67s-.98,6.74-2.93,9.14c-1.96,2.41-4.99,3.61-9.1,3.61-3.43,0-6.15-1.06-8.17-3.19-2.02-2.13-3.03-4.99-3.03-8.58,0-3.85,1.06-6.91,3.19-9.19,2.12-2.28,4.98-3.42,8.56-3.42,3.21,0,5.93.98,8.15,2.95ZM309.27,56.78c1.03-1.93,1.54-4.08,1.54-6.44,0-2.14-.37-3.87-1.11-5.21-1.17-2.11-3.2-3.16-6.07-3.16-2.55,0-4.4.9-5.56,2.69-1.16,1.79-1.74,3.96-1.74,6.49s.58,4.46,1.74,6.09c1.16,1.62,3,2.43,5.52,2.43,2.77,0,4.66-.96,5.69-2.89Z"/>
    <path class="cls-1" d="M318.24,39.27h4.01v3.25c1.19-1.34,2.45-2.3,3.77-2.89,1.33-.58,2.8-.88,4.43-.88,3.56,0,5.97,1.13,7.22,3.4.69,1.24,1.03,3.02,1.03,5.32v14.69h-4.29v-14.43c0-1.4-.23-2.52-.68-3.38-.75-1.43-2.11-2.14-4.08-2.14-1,0-1.82.09-2.46.28-1.16.31-2.17.94-3.05,1.88-.7.75-1.16,1.54-1.37,2.34-.21.81-.32,1.96-.32,3.45v12h-4.22v-22.9Z"/>
    <path class="cls-1" d="M345.28,54.99c.13,1.28.49,2.27,1.08,2.95,1.08,1.24,2.97,1.86,5.65,1.86,1.59,0,3-.31,4.21-.93s1.82-1.58,1.82-2.88c0-.98-.48-1.73-1.45-2.25-.62-.31-1.84-.68-3.67-1.09l-3.41-.77c-2.17-.48-3.78-1.03-4.81-1.62-1.84-1.04-2.76-2.48-2.76-4.32,0-2.17.87-3.92,2.6-5.26s4.07-2.01,7-2.01c3.83,0,6.6,1.01,8.29,3.04,1.06,1.28,1.58,2.67,1.54,4.15h-3.98c-.08-.86-.42-1.65-1.03-2.36-.99-1.01-2.71-1.51-5.16-1.51-1.63,0-2.87.28-3.71.83s-1.26,1.29-1.26,2.19c0,.99.55,1.79,1.66,2.39.64.35,1.58.67,2.82.94l2.84.62c3.09.67,5.16,1.32,6.21,1.95,1.64.98,2.46,2.53,2.46,4.64s-.86,3.8-2.58,5.28c-1.72,1.48-4.33,2.22-7.84,2.22-3.78,0-6.46-.77-8.03-2.32s-2.42-3.46-2.53-5.74h4.05Z"/>
  </g>
</svg>