<?xml version="1.0" encoding="UTF-8"?>
<svg id="Layer_2" xmlns="http://www.w3.org/2000/svg" viewBox="0 0 448.4 135.2">
  <defs>
    <style>
      .cls-1 {
        fill: #fff;
      }
    </style>
  </defs>
  <g id="Layer_1-2" data-name="Layer_1">
    <g>
      <path class="cls-1" d="M0,12.6c0-2.4.4-3.6,2.8-4.4l4.4-1.8c.8-.2,1.4-.4,2-.4.8,0,1.2.4,1.2,1.6v105.2c0,5.2.8,7,5.2,8.2l10.8,3.2c5.8,1.6,9.8-.6,13-4,3.2-3.4,5.4-6.2,5.4-14.2V12.6c0-2.4.4-3.6,2.8-4.4l4.4-1.8c.8-.2,1.4-.4,2-.4.8,0,1.2.4,1.2,1.6v105.2c0,5.2.8,7,5.2,8.2l10.8,3.2c5.8,1.6,9.8-.6,13-4,3.2-3.4,5.4-6.2,5.4-14.2V12.6c0-2.4.4-3.6,2.8-4.4l4.4-1.8c.8-.2,1.4-.4,2-.4.8,0,1.2.4,1.2,1.6v97.4c0,7.8-1,11.4-5.2,16.8-3.8,4.8-7.8,8.4-13.6,11.6-2,1.2-4.2,1.8-6.8,1.8-2.4,0-4.8-.4-6.8-1.2l-14-4c-3.8-1-6-2.6-6.8-4.8-2.8,3-6,5.8-10.4,8.2-2,1.2-4.2,1.8-6.8,1.8-2.4,0-4.8-.4-6.8-1.2l-14-4c-7.4-2-8.8-5.4-8.8-12.6V12.6Z"/>
      <path class="cls-1" d="M147.8,0h6.8c2.2,0,3,1.6,2.8,3.6l-23,130.2h-6.6c-2.2,0-3.4-1.2-3-3.6L147.8,0Z"/>
      <path class="cls-1" d="M265.8,133.8c-3.8,0-4.8-1.4-4.8-5v-47.2c0-3.8-1.2-4.8-5-4.8h-26v57h-8.8c-4,0-5-1.4-5-5V35c0-8.4,1.6-12.4,5-16.2,4-4.4,9.4-8.6,15.2-11.2,2.4-1,4.2-1.6,6.8-1.6,2.2,0,4.4.4,6.6,1l15.8,4.6c8.4,2.4,9.4,5.6,9.4,14.2v108h-9.2ZM261,31.8c0-4.8-.6-6.6-4.8-7.8l-9.2-2.6c-5.4-1.6-9.4.2-12.4,3-2.8,2.6-4.6,5.4-4.6,10.6v22.8c0,3.6,1.2,4.6,5.2,4.6h25.8v-30.6Z"/>
      <path class="cls-1" d="M306,35c0-8.4,1.6-12.4,5-16,4-4.6,9.6-8.8,15.4-11.4,2.2-1,4.2-1.6,6.6-1.6s4.6.4,6.6,1l15.6,4.6c8.4,2.4,10,6,10,14.6v24c0,18-11.8,26.4-26.2,26.4h-19.2v57.2h-8.8c-4,0-5-1.4-5-5V35ZM336.6,62.4c11.2,0,14.6-5.4,14.6-15v-15.2c0-5-.8-7-5.2-8.2l-9.4-2.8c-5-1.4-9.2.8-11.6,2.6-2.6,2.4-5.2,5.4-5.2,10.8v23.2c0,3.6,1.2,4.6,5.2,4.6h11.6Z"/>
      <path class="cls-1" d="M389.2,35c0-8.4,1.6-12.4,5-16,4-4.6,9.6-8.8,15.4-11.4,2.2-1,4.2-1.6,6.6-1.6s4.6.4,6.6,1l15.6,4.6c8.4,2.4,10,6,10,14.6v24c0,18-11.8,26.4-26.2,26.4h-19.2v57.2h-8.8c-4,0-5-1.4-5-5V35ZM419.8,62.4c11.2,0,14.6-5.4,14.6-15v-15.2c0-5-.8-7-5.2-8.2l-9.4-2.8c-5-1.4-9.2.8-11.6,2.6-2.6,2.4-5.2,5.4-5.2,10.8v23.2c0,3.6,1.2,4.6,5.2,4.6h11.6Z"/>
    </g>
  </g>
</svg>