<?xml version="1.0" encoding="UTF-8" standalone="no"?>
<!-- Created with Inkscape (http://www.inkscape.org/) -->

<svg
   width="345.55066mm"
   height="76.202026mm"
   viewBox="0 0 345.55065 76.202028"
   version="1.1"
   id="svg1"
   xml:space="preserve"
   inkscape:export-filename="app-team-logo.svg"
   inkscape:export-xdpi="96"
   inkscape:export-ydpi="96"
   xmlns:inkscape="http://www.inkscape.org/namespaces/inkscape"
   xmlns:sodipodi="http://sodipodi.sourceforge.net/DTD/sodipodi-0.dtd"
   xmlns="http://www.w3.org/2000/svg"
   xmlns:svg="http://www.w3.org/2000/svg"><sodipodi:namedview
     id="namedview1"
     pagecolor="#535353"
     bordercolor="#000000"
     borderopacity="0.25"
     inkscape:showpageshadow="2"
     inkscape:pageopacity="0.0"
     inkscape:pagecheckerboard="true"
     inkscape:deskcolor="#5b5b5b"
     inkscape:document-units="mm"
     inkscape:zoom="0.21079809"
     inkscape:cx="792.22731"
     inkscape:cy="-424.57691"
     inkscape:window-width="2164"
     inkscape:window-height="1145"
     inkscape:window-x="2710"
     inkscape:window-y="179"
     inkscape:window-maximized="0"
     inkscape:current-layer="layer1" /><defs
     id="defs1" /><g
     inkscape:label="Layer 1"
     inkscape:groupmode="layer"
     id="layer1"
     transform="translate(-19.492023,-89.990535)"><path
       style="font-size:60.7065px;font-family:'Century Gothic';-inkscape-font-specification:'Century Gothic';fill:#ffffff;stroke-width:33.7081;stroke-linecap:round;stroke-linejoin:round"
       d="m 94.958022,116.66518 h 2.57451 l 5.097858,18.07271 7.19499,-18.07271 h 0.51149 l 7.10973,18.07271 5.20017,-18.07271 h 2.55746 l -7.19498,25.08015 h -0.4774 l -7.43368,-18.97635 -7.58712,18.97635 h -0.47739 z m 34.576838,0 h 2.50631 v 25.08015 h -2.50631 z m 8.26911,25.08015 v -25.08015 h 0.5456 l 16.67462,19.19799 v -19.19799 h 2.47221 v 25.08015 h -0.56264 l -16.53823,-18.9593 v 18.9593 z m 49.1714,-20.42557 -1.97776,1.51742 q -1.63678,-2.13121 -3.93849,-3.22239 -2.28467,-1.10824 -5.02967,-1.10824 -3.00075,0 -5.55821,1.44923 -2.55746,1.43218 -3.97259,3.87029 -1.39807,2.42106 -1.39807,5.45591 0,4.58637 3.13715,7.65533 3.15419,3.06895 7.94517,3.06895 5.26836,0 8.81471,-4.12604 l 1.97776,1.50038 q -1.87546,2.38696 -4.68867,3.69979 -2.79616,1.29578 -6.25725,1.29578 -6.58119,0 -10.38328,-4.38178 -3.1883,-3.69979 -3.1883,-8.93406 0,-5.50706 3.85324,-9.258 3.87028,-3.76799 9.68424,-3.76799 3.51224,0 6.3425,1.39809 2.83026,1.38102 4.63752,3.88733 z m 24.94375,-4.65458 11.69611,25.08015 h -2.69386 l -3.93848,-8.25207 h -10.80953 l -3.92144,8.25207 h -2.79615 l 11.84955,-25.08015 z m -0.3069,5.31952 -4.31358,9.0875 h 8.57601 z m 15.87329,-5.31952 h 4.99557 q 4.29653,0 5.79691,0.3751 2.14827,0.52854 3.51224,2.18236 1.36398,1.63678 1.36398,4.12604 0,2.50631 -1.32988,4.14308 -1.32988,1.61972 -3.66569,2.18236 -1.70498,0.40919 -6.3766,0.40919 h -1.79021 v 11.66202 h -2.50632 z m 2.50632,2.43812 v 8.52486 l 4.24537,0.0511 q 2.57451,0 3.76799,-0.46034 1.19348,-0.47739 1.87547,-1.51742 0.68199,-1.05708 0.68199,-2.35286 0,-1.26168 -0.68199,-2.30172 -0.68199,-1.05708 -1.80727,-1.50038 -1.10823,-0.44328 -3.64864,-0.44328 z m 18.15796,-2.43812 h 4.99557 q 4.29652,0 5.7969,0.3751 2.14827,0.52854 3.51225,2.18236 1.36397,1.63678 1.36397,4.12604 0,2.50631 -1.32988,4.14308 -1.32987,1.61972 -3.66569,2.18236 -1.70497,0.40919 -6.37659,0.40919 h -1.79022 v 11.66202 h -2.50631 z m 2.50631,2.43812 v 8.52486 l 4.24538,0.0511 q 2.57451,0 3.76799,-0.46034 1.19348,-0.47739 1.87547,-1.51742 0.68198,-1.05708 0.68198,-2.35286 0,-1.26168 -0.68198,-2.30172 -0.68199,-1.05708 -1.80728,-1.50038 -1.10823,-0.44328 -3.64864,-0.44328 z m 25.35294,0 v -2.43812 h 13.75912 v 2.43812 h -5.59231 v 22.64203 H 281.6184 V 119.1033 Z m 17.37366,-2.43812 h 14.37292 v 2.47222 h -11.86661 v 7.84287 h 11.76431 v 2.45516 h -11.76431 v 9.83769 h 11.76431 v 2.47221 H 293.3827 Z m 28.95042,0 11.69611,25.08015 h -2.69386 l -3.93848,-8.25207 h -10.80953 l -3.92144,8.25207 h -2.79615 l 11.84956,-25.08015 z m -0.3069,5.31952 -4.31358,9.0875 h 8.57602 z m 14.74802,19.76063 3.56339,-25.08015 h 0.40919 l 10.19574,20.57902 10.09344,-20.57902 h 0.40919 l 3.59749,25.08015 h -2.47221 l -2.45516,-17.93631 -8.86586,17.93631 h -0.63084 l -8.9852,-18.07271 -2.43811,18.07271 z"
       id="text2"
       aria-label="WINC APP TEAM" /><path
       style="fill:none;stroke:#ffffff;stroke-width:3.065;stroke-linecap:round;stroke-linejoin:round;stroke-dasharray:none;stroke-opacity:1"
       d="m 50.835443,133.70024 c 4.808518,22.4954 17.426828,30.65026 17.426828,30.65026 2.607783,-32.05978 -6.367659,-51.3085 -6.367659,-51.3085 L 61.659269,102.45166 C 56.163368,85.475593 37.800854,91.028941 36.242471,100.56894 c -5.288822,0.62536 -15.218699,4.8637 -15.218699,4.8637 0,0 19.060769,-1.35501 21.799332,6.83933 -16.657664,22.95044 -17.722699,38.49148 2.586439,52.29901"
       id="path1"
       sodipodi:nodetypes="cccccccc" /><path
       style="fill:none;stroke:#ffffff;stroke-width:3.065;stroke-linecap:round;stroke-linejoin:round;stroke-dasharray:none;stroke-opacity:1"
       d="m 32.320126,164.66006 40.08637,-0.0784"
       id="path2" /></g></svg>
