<?xml version="1.0" encoding="UTF-8"?>
<svg id="Layer_1" data-name="Layer 1" xmlns="http://www.w3.org/2000/svg" viewBox="0 0 163.94 163.21">
  <defs>
    <style>
      .cls-1 {
        fill: #903340;
      }

      .cls-2 {
        fill: #dbcdcf;
      }

      .cls-3 {
        fill: #d2babd;
      }

      .cls-4 {
        fill: #ddd2d3;
      }

      .cls-5 {
        fill: #8e2f3c;
      }

      .cls-6 {
        fill: #b7828a;
      }

      .cls-7 {
        fill: #dfd5d7;
      }

      .cls-8 {
        fill: #d1b8bb;
      }

      .cls-9 {
        fill: #d0b7bb;
      }

      .cls-10 {
        fill: #d1babd;
      }

      .cls-11 {
        fill: #ba8a91;
      }

      .cls-12 {
        fill: #9b4a55;
      }

      .cls-13 {
        fill: #dacbcd;
      }

      .cls-14 {
        fill: #c29aa0;
      }

      .cls-15 {
        fill: #943b48;
      }

      .cls-16 {
        fill: #d1b9bd;
      }

      .cls-17 {
        fill: #994651;
      }

      .cls-18 {
        fill: #8f313e;
      }

      .cls-19 {
        fill: #a35964;
      }

      .cls-20 {
        fill: #903341;
      }

      .cls-21 {
        fill: #8f313f;
      }

      .cls-22 {
        fill: #97434f;
      }

      .cls-23 {
        fill: #c9a9ad;
      }

      .cls-24 {
        fill: #9e505b;
      }

      .cls-25 {
        fill: #cdb1b5;
      }

      .cls-26 {
        fill: #d0b6ba;
      }

      .cls-27 {
        fill: #8e2f3d;
      }

      .cls-28 {
        fill: #943b47;
      }

      .cls-29 {
        fill: #913743;
      }

      .cls-30 {
        fill: #ba888f;
      }

      .cls-31 {
        fill: #ac6c76;
      }

      .cls-32 {
        fill: #913340;
      }

      .cls-33 {
        fill: #d2bcbf;
      }

      .cls-34 {
        fill: #943a47;
      }

      .cls-35 {
        fill: #a55d67;
      }

      .cls-36 {
        fill: #a25964;
      }

      .cls-37 {
        fill: #933846;
      }

      .cls-38 {
        fill: #9a4652;
      }

      .cls-39 {
        fill: #97414d;
      }

      .cls-40 {
        fill: #bf939a;
      }

      .cls-41 {
        fill: #a65f69;
      }

      .cls-42 {
        fill: #a7626d;
      }

      .cls-43 {
        fill: #994551;
      }

      .cls-44 {
        fill: #8e2e3c;
      }

      .cls-45 {
        fill: #9d4e59;
      }

      .cls-46 {
        fill: #98424f;
      }

      .cls-47 {
        fill: #bd8e95;
      }

      .cls-48 {
        fill: #b6828a;
      }

      .cls-49 {
        fill: #ad6e77;
      }

      .cls-50 {
        fill: #d4bec2;
      }

      .cls-51 {
        fill: #c49da3;
      }

      .cls-52 {
        fill: #984551;
      }

      .cls-53 {
        fill: #a9666f;
      }

      .cls-54 {
        fill: #933845;
      }

      .cls-55 {
        fill: #923744;
      }

      .cls-56 {
        fill: #98444f;
      }

      .cls-57 {
        fill: #923743;
      }

      .cls-58 {
        fill: #a0555f;
      }

      .cls-59 {
        fill: #c8a6ab;
      }

      .cls-60 {
        fill: #b37b82;
      }

      .cls-61 {
        fill: #903240;
      }

      .cls-62 {
        fill: #9b4a56;
      }

      .cls-63 {
        fill: #9b4b56;
      }

      .cls-64 {
        fill: #973f4b;
      }

      .cls-65 {
        fill: #b68088;
      }

      .cls-66 {
        fill: #b67f87;
      }

      .cls-67 {
        fill: #9c4b56;
      }

      .cls-68 {
        fill: #98434f;
      }

      .cls-69 {
        fill: #8f2f3d;
      }

      .cls-70 {
        fill: #90323f;
      }

      .cls-71 {
        fill: #be9197;
      }

      .cls-72 {
        fill: #b9878f;
      }

      .cls-73 {
        fill: #c49fa4;
      }

      .cls-74 {
        fill: #8f303e;
      }

      .cls-75 {
        fill: #90313f;
      }

      .cls-76 {
        fill: #994652;
      }

      .cls-77 {
        fill: #ae7179;
      }

      .cls-78 {
        fill: #dfd6d7;
      }

      .cls-79 {
        fill: #af747c;
      }

      .cls-80 {
        fill: #b47d85;
      }

      .cls-81 {
        fill: #ded4d5;
      }

      .cls-82 {
        fill: #a25762;
      }

      .cls-83 {
        fill: #a25661;
      }

      .cls-84 {
        fill: #c9a8ad;
      }

      .cls-85 {
        fill: #a96770;
      }

      .cls-86 {
        fill: #8e303d;
      }

      .cls-87 {
        fill: #c2999f;
      }

      .cls-88 {
        fill: #a25a64;
      }

      .cls-89 {
        fill: #a8636d;
      }

      .cls-90 {
        fill: #984651;
      }

      .cls-91 {
        fill: #a0535f;
      }

      .cls-92 {
        fill: #953e4a;
      }

      .cls-93 {
        fill: #a35a64;
      }

      .cls-94 {
        fill: #ccaeb2;
      }

      .cls-95 {
        fill: #b9888f;
      }

      .cls-96 {
        fill: #dccfd1;
      }

      .cls-97 {
        fill: #994752;
      }

      .cls-98 {
        fill: #b1767f;
      }

      .cls-99 {
        fill: #8f323f;
      }

      .cls-100 {
        fill: #9d4f5a;
      }

      .cls-101 {
        fill: #943c48;
      }

      .cls-102 {
        fill: #953d49;
      }

      .cls-103 {
        fill: #8d2d3b;
      }

      .cls-104 {
        fill: #913442;
      }

      .cls-105 {
        fill: #9c4c58;
      }

      .cls-106 {
        fill: #caabaf;
      }

      .cls-107 {
        fill: #9c4c57;
      }

      .cls-108 {
        fill: #994753;
      }

      .cls-109 {
        fill: #b57f87;
      }

      .cls-110 {
        fill: #b57e86;
      }

      .cls-111 {
        fill: #a8646e;
      }

      .cls-112 {
        fill: #bf9299;
      }

      .cls-113 {
        fill: #d2bbbf;
      }

      .cls-114 {
        fill: #a05560;
      }

      .cls-115 {
        fill: #bc8e95;
      }

      .cls-116 {
        fill: #b0757d;
      }

      .cls-117 {
        fill: #a15661;
      }

      .cls-118 {
        fill: #913441;
      }

      .cls-119 {
        fill: #c6a2a7;
      }

      .cls-120 {
        fill: #aa6972;
      }

      .cls-121 {
        fill: #b8858c;
      }

      .cls-122 {
        fill: #913643;
      }

      .cls-123 {
        fill: #ac6d76;
      }

      .cls-124 {
        fill: #e0d8da;
      }

      .cls-125 {
        fill: #d5c1c4;
      }

      .cls-126 {
        fill: #b9878e;
      }

      .cls-127 {
        fill: #97424e;
      }

      .cls-128 {
        fill: #bb8b92;
      }

      .cls-129 {
        fill: #a45c67;
      }

      .cls-130 {
        fill: #c5a1a6;
      }

      .cls-131 {
        fill: #9e515b;
      }

      .cls-132 {
        fill: #903441;
      }

      .cls-133 {
        fill: #d3bdc0;
      }

      .cls-134 {
        fill: #96404c;
      }

      .cls-135 {
        fill: #c39aa0;
      }

      .cls-136 {
        fill: #953d4a;
      }

      .cls-137 {
        fill: #dcd0d1;
      }

      .cls-138 {
        fill: #a96871;
      }

      .cls-139 {
        fill: #ab6c75;
      }

      .cls-140 {
        fill: #9b4854;
      }

      .cls-141 {
        fill: #a35b65;
      }

      .cls-142 {
        fill: #913542;
      }

      .cls-143 {
        fill: #953f4b;
      }

      .cls-144 {
        fill: #923845;
      }
    </style>
  </defs>
  <path class="cls-85" d="M85.07.03c4.31.03,7.81.8,11.88,2.19v3c.33-.66.66-1.32,1-2h2l1,2c1.64.72,3.31,1.39,5,2v3l2-2c1.39,4.18-.29,6.83-1.94,10.69q-.44,1.05-.88,2.13c-.72,1.73-1.45,3.46-2.18,5.19l-3-2v-1h-3l-1-2h-3l-1-2h-3v-3c-1.32.33-2.64.66-4,1v-3c-1.32.99-2.64,1.98-4,3,2.71,1.12,5.39,2.12,8.19,3q2.81,1,4.81,3c-3.15.7-5.73,1-9,1q-4.64.57-9.19,1.62c-2.21.46-3.69.06-5.81-.62v2l-5,2-1-1-1,2c-.87.27-1.73.54-2.62.81-3.57,1.26-5.79,2.87-8.66,5.26q-1.71.93-3.59.86c-2.99-1.31-4.99-3.27-7.37-5.49-.89-.83-1.78-1.65-2.7-2.5-.68-.64-1.35-1.28-2.05-1.93,2.21-3.97,4.78-7.25,7.81-10.62.83-.94,1.66-1.88,2.52-2.85,3.56-3.36,6.69-5.52,11.67-5.52v-2c.93-.12,1.86-.25,2.81-.38q3.33-.44,6.19-2.62c.33.33.66.66,1,1,.33-.66.66-1.32,1-2q2-.41,4.44-.62c.8-.07,1.61-.15,2.43-.23,1.37-.1,2.75-.15,4.13-.15,1.54-1.54,2.98-1.17,5.12-1.19Z"/>
  <path class="cls-79" d="M21.94,101.21l-1,4h2c-.33,1.65-.66,3.3-1,5h2v3h2v3h2c-.28,1.92-.58,3.83-.88,5.75-.16,1.07-.32,2.13-.49,3.23-.57,2.69-1.27,4.65-2.63,7.02.66.33,1.32.66,2,1q.2-1.26.4-2.55c.18-1.1.35-2.19.54-3.32q.26-1.64.53-3.3.54-2.82,1.54-4.82h2v3h2c-.31,2.1-.62,4.21-.94,6.31q-.26,1.76-.53,3.55-.54,3.14-1.54,6.14h-3c1.32.33,2.64.66,4,1,.66-4.29,1.32-8.58,2-13l3-1c2.3,3.45,2.14,4.23,1.62,8.19-.11.9-.22,1.8-.34,2.73-.1.69-.19,1.37-.29,2.08.66-2.64,1.32-5.28,2-8h3v2h2l1,3h2v6c.33-1.65.66-3.3,1-5h3v2h3v2h3c.26,5.91-.7,11.24-2,17q-12.48-1.48-14-3c-1.05-.11-2.1-.21-3.18-.32-4.23-.75-6.51-2.04-10.01-4.49-1-.69-2.01-1.37-3.04-2.08-2.49-1.9-4.62-3.83-6.77-6.11-2.29-2.36-4.25-4.16-7-6-.33-1.01-.66-2.02-1-3.06-.33-.97-.66-1.94-1-2.94l-3-1,1-2-2-1v-2l-2-1c-.37-1.99-.71-3.99-1-6l-1-1c-.07-2.19-.08-4.38-.06-6.56,0-1.2.02-2.4.03-3.63.01-.93.02-1.85.04-2.81,2.56-.36,5.12-.72,7.69-1.06.72-.1,1.44-.21,2.19-.31,3.97-.53,7.21-.73,11.13.38Z"/>
  <path class="cls-19" d="M157.94,75.21c1.15,2.42,1.98,4.58,2.75,7.12.22.65.44,1.3.67,1.98,1.41,4.42,1.69,8.22,1.58,12.9.18.67.37,1.34.56,2.02.67,2.99.02,5.6-.5,8.6q-.77,4.17-1.06,8.38h-2c.33.99.66,1.98,1,3q-.99.49-2,1-.66,3.03-1,6h-2v2c-.32,2-.65,4-1,6h-2v3q-1.49-.49-3-1c-1.04-2.37-1.9-4.62-2.69-7.06-.22-.66-.45-1.33-.68-2.01-.55-1.64-1.09-3.28-1.63-4.93-2.31-.33-4.62-.66-7-1l1,2q-5.14,4.43-9,5v-2q.99-.49,2-1v-2q.99-.49,2-1v-2l5-2h-3v-2l6-2h-5l2-2q-.5-1.49-1-3,.99-.49,2-1,.43-3.14.56-6.81c.2-3.89.48-7.42,1.44-11.19l-1-1c-.07-1.69-.08-3.38-.06-5.06,0-.92.02-1.84.03-2.79.01-.71.02-1.42.04-2.15q13.29-5.85,17-4Z"/>
  <path class="cls-16" d="M142.94,122.21c3.15,1.57,3.54,4.72,4.62,7.88q.34.96.7,1.93c1,2.86,1.68,5.13,1.68,8.19h-2v2h-3v2c-.99-.33-1.98-.66-3-1v2q-4.88,2-6,2l-2,2-1-1c-.74.95-1.48,1.9-2.25,2.88-2.09,2.51-3.72,3.84-6.75,5.12-.97.66-1.94,1.32-2.94,2-2.67,1.74-5.07,2.94-8.06,4q-.5-.49-1-1l-2,2q-2.38-.38-5-1h-4q-2-1-3-3h-4q-.49-1.49-1-3,6.62-3,10-3c-.49-.95-.99-1.9-1.5-2.88q-1.5-3.12-1.5-5.12,1.25-1.69,3-3c2.97.29,5.39,1.6,8,3-.99-.66-1.98-1.32-3-2v-2q4.75,1.88,7,3l-4-4c4.37,0,4.75.23,7.75,3,.61.56,1.23,1.11,1.86,1.69.46.43.92.87,1.39,1.31-.43-.41-.87-.82-1.31-1.24-.56-.54-1.11-1.08-1.69-1.63-.56-.53-1.11-1.07-1.69-1.62q-1.31-1.51-1.31-3.51c.97-.31,1.94-.62,2.94-.94q2.9-.76,4.06-2.06l3-1,1-2h3c1.69-1.65,3.35-3.31,5-5h2c.33-.66.66-1.32,1-2h3v-2l2-1Z"/>
  <path class="cls-12" d="M79.94,6.21c0,3.91-1.51,5.12-4,8,1.12,1.15,2.25,2.29,3.38,3.44.63.64,1.25,1.28,1.9,1.93q1.64,1.71,3.73,2.63v2c-1.07.14-2.14.29-3.25.44q-3.52.45-5.94,1.19c-2.21.46-3.69.06-5.81-.62v2c-1.65.66-3.3,1.32-5,2l-1-1-1,2c-.87.27-1.73.54-2.62.81-3.57,1.26-5.79,2.87-8.66,5.26q-1.71.93-3.59.86c-2.99-1.31-4.99-3.27-7.37-5.49-.89-.83-1.78-1.65-2.7-2.5-.68-.64-1.35-1.28-2.05-1.93.33-.66.66-1.32,1-2l4,1v-4l2,1,2-2c5.17-4.14,8.53-5,15-5l3,2-2-3c1.32-.99,2.64-1.98,4-3,.06.74.12,1.49.19,2.25,1.05,3.57,2.81,4.67,5.81,6.75l-5-5,1-3,2,2v-2h2v2h2c.23-.56.45-1.11.69-1.69,1.67-2.94,3.87-4.99,6.31-7.31Z"/>
  <path class="cls-130" d="M11.94,63.21c.33,3.96.66,7.92,1,12h2c.33.66.66,1.32,1,2,2.31-.66,4.62-1.32,7-2v2l-2,1v4q-1.98.99-4,2c1.32-.33,2.64-.66,4-1l-1,3q-2.94,1.39-6.56,2.69-1.8.66-3.63,1.32-1.39.49-2.81.99c.6-.2,1.21-.41,1.83-.62.8-.27,1.6-.54,2.42-.82.79-.27,1.58-.53,2.39-.81,2.11-.67,4.21-1.25,6.36-1.75v12c-2.06.34-4.12.67-6.19,1-1.15.19-2.3.37-3.48.56-2.84.37-5.48.52-8.33.44v-2c3.63-.99,7.26-1.98,11-3-3.3.66-6.6,1.32-10,2-2.25-11.25-3.66-19.01,0-30,.99-.33,1.98-.66,3-1l2,2c-.33-1.65-.66-3.3-1-5q2-1,5-1Z"/>
  <path class="cls-82" d="M142.94,122.21c3.15,1.57,3.54,4.72,4.62,7.88q.34.96.7,1.93c1,2.86,1.68,5.13,1.68,8.19h-2v2h-3v2c-.99-.33-1.98-.66-3-1v2q-4.88,2-6,2l-2,2-1-1-2,2c-3.96-3.96-7.92-7.92-12-12l1-2h3l1-2h2l1-2h3c1.69-1.65,3.35-3.31,5-5h2c.33-.66.66-1.32,1-2h3v-2l2-1Z"/>
  <path class="cls-6" d="M40.94,130.21l1,2h2c.33.99.66,1.98,1,3h2v6c.33-1.65.66-3.3,1-5h3v2h3v2h3c.26,5.91-.7,11.24-2,17q-12.48-1.48-14-3c-.97-.04-1.94-.08-2.94-.12-5.57-.66-9.75-4.55-14.06-7.88l1-2q2.07-.41,4.56-.62,1.24-.11,2.5-.23.96-.07,1.93-.15l1,3c.99-.33,1.98-.66,3-1,.99-4.95,1.98-9.9,3-15Z"/>
  <path class="cls-92" d="M91.94,1.21q2.69.31,5,1v3c.33-.66.66-1.32,1-2h2c.33.66.66,1.32,1,2,1.64.72,3.31,1.39,5,2v3c.66-.66,1.32-1.32,2-2,1.39,4.18-.29,6.83-1.94,10.69-.29.7-.58,1.4-.88,2.13-.72,1.73-1.45,3.46-2.18,5.19l-3-2v-1h-3l-1-2h-3c-.33-.66-.66-1.32-1-2h-3v-3c-1.32.33-2.64.66-4,1v-3l-3,2-1-2c.68-.93,1.36-1.86,2.06-2.81.64-1.05,1.28-2.1,1.94-3.19-.33-.99-.66-1.98-1-3,1.32-.99,2.64-1.98,4-3,.33.66.66,1.32,1,2,.39-.52.78-1.03,1.19-1.56.6-.47,1.2-.95,1.81-1.44Z"/>
  <path class="cls-139" d="M156.94,74.21c.33,2.31.66,4.62,1,7-.99.33-1.98.66-3,1h4c-.33.97-.66,1.94-1,2.94q-1.29,3.29,0,6.12c.33.64.66,1.28,1,1.94.66-.33,1.32-.66,2-1q-.99,2.48-2,5c-1.3.12-2.6.25-3.94.38-4.78.52-9.39,1.49-14.06,2.62-.08-3.56.11-6.57,1-10l-1-1c-.07-1.69-.08-3.38-.06-5.06,0-.92.02-1.84.03-2.79.01-.71.02-1.42.04-2.15q11.36-5,16-5Z"/>
  <path class="cls-47" d="M30.94,122.21h2c-.31,2.1-.62,4.21-.94,6.31q-.26,1.76-.53,3.55-.54,3.14-1.54,6.14h-3c1.32.33,2.64.66,4,1,.66-4.29,1.32-8.58,2-13,.99-.33,1.98-.66,3-1,2.3,3.45,2.14,4.23,1.62,8.19q-.17,1.35-.34,2.73-.14,1.03-.29,2.08c.66-2.64,1.32-5.28,2-8h2c-.48,5.57-1.3,10.67-3,16-1.98.33-3.96.66-6,1-.66-.99-1.32-1.98-2-3-1.24.25-2.47.5-3.75.75q-3.93.49-6.5-1.44c-.58-.76-1.15-1.53-1.75-2.31-.74-.74-1.48-1.49-2.25-2.25-.58-.58-1.16-1.15-1.75-1.75l1-3c4.29.33,8.58.66,13,1,.99-4.29,1.98-8.58,3-13Z"/>
  <path class="cls-33" d="M.94,74.21c4.43,1.48,4.91,3.9,7,8v2c1.32-.33,2.64-.66,4-1q-.75,2.44-2,5-2.06.88-4,1l-1-1c-.33,1.32-.66,2.64-1,4,5.28-1.65,10.56-3.3,16-5v12c-2.06.34-4.12.67-6.19,1-1.15.19-2.3.37-3.48.56-2.84.37-5.48.52-8.33.44v-2q5.45-1.49,11-3c-3.3.66-6.6,1.32-10,2q-3.49-17.45-2-24Z"/>
  <path class="cls-80" d="M156.94,75.21c4.36,6.54,6.49,14.19,6,22,.18.59.36,1.17.55,1.77.64,3.12.06,5.73-.48,8.85q-.77,4.17-1.06,8.38h-2c.33.99.66,1.98,1,3h-2v-2h-2c-.51-1.44-1-2.87-1.5-4.31-.28-.8-.56-1.6-.84-2.43q-.66-2.26-.66-5.26c-1.32-.33-2.64-.66-4-1,.62-.12,1.24-.25,1.88-.38q2.32-.5,4.12-2.62-.78-3.07-3-5c1.98-.33,3.96-.66,6-1,0-2.05-1.75-3.52-3-5-.99-.33-1.98-.66-3-1,1.32-.33,2.64-.66,4-1,.33-1.65.66-3.3,1-5h-7q3-2,7-2c-.99-1.32-1.98-2.64-3-4h2v-2Z"/>
  <path class="cls-3" d="M108.94,11.21q5.46.35,8,1,1.5,2.06,2,4l-3,1v6c.33-1.32.66-2.64,1-4h6v1h-5c-.33,5.28-.66,10.56-1,16h-2l-1-3h-3v-2c-.78-.27-1.57-.54-2.38-.81q-2.62-1.19-4.62-4.19c.67-2.68,1.42-5.11,2.38-7.69.25-.7.49-1.4.75-2.13.61-1.73,1.24-3.46,1.88-5.19Z"/>
  <path class="cls-106" d="M46.94,54.21l4,2c-.33.66-.66,1.32-1,2,.6-.52,1.2-1.03,1.81-1.56q1.08-.71,2.19-1.44c.99.33,1.98.66,3,1v3c1.65-.99,3.3-1.98,5-3q-.25,1.88-1,4-2.06,1.25-4,2l1,1c.14,2.67.04,5.32,0,8-3.24-.35-4.62-.56-6.81-3.06-.39-.64-.78-1.28-1.19-1.94v3h-7v-4l-1,2h-2v-12h4c-.33,2.31-.66,4.62-1,7h2c.14-1.13.29-2.27.44-3.44q.56-3.56,1.56-4.56Z"/>
  <path class="cls-141" d="M131.94,129.21l2,2h-2q2.51,5.34,5.75,10.25,1.25,1.75,1.25,5.75c-1.32-.33-2.64-.66-4-1v3c-.66-.33-1.32-.66-2-1-.66.66-1.32,1.32-2,2-3.96-3.96-7.92-7.92-12-12,.33-.66.66-1.32,1-2h3c.33-.66.66-1.32,1-2h2c.33-.66.66-1.32,1-2h3c.66-.99,1.32-1.98,2-3Z"/>
  <path class="cls-123" d="M149.94,114.21c.35,1.06.7,2.12,1.06,3.21.46,1.39.92,2.78,1.38,4.16.23.7.46,1.4.7,2.12q1.25,3.83,2.87,7.51l-1,3h-2v3c-.99-.33-1.98-.66-3-1-1.04-2.37-1.9-4.62-2.69-7.06-.22-.66-.45-1.33-.68-2.01-.55-1.64-1.09-3.28-1.63-4.93-2.31-.33-4.62-.66-7-1l1,2q-5.14,4.43-9,5v-2l2-1v-2l2-1v-2c2.64-.66,5.28-1.32,8-2v-2q5.75-2,8-2Z"/>
  <path class="cls-9" d="M114.94,63.21c4.95,1.17,7.03,4.16,9.96,8.03.34.65.69,1.3,1.04,1.97l-1,3c-1.65-.66-3.3-1.32-5-2,.33,1.98.66,3.96,1,6-1.98.66-3.96,1.32-6,2-.06-.62-.12-1.24-.19-1.88q-.62-2.38-3.19-3.19c-.87-.31-1.73-.62-2.62-.94q-1.81-1.62-3-3,2.97.49,6,1v-2c-.99-.33-1.98-.66-3-1,1.56-1.2,3.12-2.41,4.69-3.61q1.66-1.43,1.31-4.39Z"/>
  <path class="cls-74" d="M156.94,86.21v3c.65,1.34,1.32,2.68,2,4,.66-.33,1.32-.66,2-1-.66,1.65-1.32,3.3-2,5q-1.95.19-3.94.38c-4.78.52-9.39,1.49-14.06,2.62q-.17-7.38,1-10,2.62-1.27,5.88-2.25c1.07-.34,2.14-.67,3.24-1.02q2.88-.73,5.88-.73Z"/>
  <path class="cls-112" d="M57.94,6.21h2c-.33,1.09-.66,2.19-1,3.31-1.08,3.99-1.3,5.79,0,9.69-1.32-.66-2.64-1.32-4-2-.66.66-1.32,1.32-2,2l-1-2c-.45.49-.91.99-1.38,1.5q-1.62,1.5-3.62,1.5v2l-3,1,1,2c-1.32-.66-2.64-1.32-4-2l2,5c-2.47-1.15-4.05-2.05-6-4,1.86-2.11,3.74-4.22,5.62-6.31.52-.59,1.04-1.19,1.58-1.8,3.28-3.62,6.15-6.08,10.79-7.88h3v-2Z"/>
  <path class="cls-129" d="M96.94,2.21v3c.33-.66.66-1.32,1-2h2c.33.66.66,1.32,1,2,1.64.72,3.31,1.39,5,2v3c.66-.66,1.32-1.32,2-2,1.39,4.18-.29,6.83-1.94,10.69-.29.7-.58,1.4-.88,2.13-.72,1.73-1.45,3.46-2.18,5.19-.99-.66-1.98-1.32-3-2,.33-.33.66-.66,1-1,.23-1.51.41-3.04.56-4.56.08-.83.17-1.65.25-2.5.06-.64.12-1.28.18-1.93h-2v-4c-1.32.99-2.64,1.98-4,3v-4c-1.32.99-2.64,1.98-4,3,.66-1.98,1.32-3.96,2-6-.99.33-1.98.66-3,1q2.26-5,6-5Z"/>
  <path class="cls-142" d="M51.94,98.21c4.01,2,5.41,3.49,8,7-1.09,1.34-2.2,2.67-3.31,4-.61.74-1.23,1.48-1.86,2.25q-1.82,1.75-4.82,1.75c-2.25-2.15-4.05-4.57-6-7l8-8Z"/>
  <path class="cls-122" d="M108.94,98.21q8.57.86,12,3-.88,7.75-2,10-5.94-1.48-12-3,.88-7.75,2-10Z"/>
  <path class="cls-142" d="M84.94,44.21c1.19,3.88,2,6.92,2,11-3.77,2.32-5.01,2-10,2-.99-3.96-1.98-7.92-3-12q7.43-2.43,11-1Z"/>
  <path class="cls-83" d="M51.94,16.21c.33.99.66,1.98,1,3,.74.29,1.48.58,2.25.88,3.49,1.43,5.35,3.24,7.75,6.12v4q-4.62,2.12-8,1v-2c-.58-.27-1.15-.54-1.75-.81q-5.88-3.1-7-6.38c-.08-.6-.16-1.2-.25-1.81,1.98-1.32,3.96-2.64,6-4Z"/>
  <path class="cls-84" d="M27.94,53.21l2,1c-.33.99-.66,1.98-1,3h-2q-1.06,2.09-1,5c1.74,2.89,3.81,5.44,6,8q-2.48-.99-5-2v2c.66.33,1.32.66,2,1q-7.62-.88-11-2c.14-1.6.29-3.21.44-4.81.08-.89.16-1.79.25-2.71q.32-2.48,1.32-5.48h4c.33.66.66,1.32,1,2,.99-1.65,1.98-3.3,3-5Z"/>
  <path class="cls-113" d="M115.94,138.21c4.93.42,6.98,2.55,10.31,6.06.88.92,1.77,1.84,2.68,2.79q1,1.07,2.01,2.15c-1.78,4.18-3.85,5.19-8,7q-1.12-3.75,0-6c-3.96-2.97-7.92-5.94-12-9,.33-.66.66-1.32,1-2,3.44,1.53,6.12,3.6,9,6-.82-.78-1.65-1.57-2.5-2.38q-2.5-2.62-2.5-4.62Z"/>
  <path class="cls-82" d="M63.94,12.21q.12.87.25,1.77c.98,2.92,2.46,4.04,4.82,5.98.73.61,1.47,1.23,2.22,1.86q.85.69,1.71,1.39l-1,3c-.66-.33-1.32-.66-2-1v2c-1.65.66-3.3,1.32-5,2-.46-.47-.92-.94-1.39-1.43q-4.52-4.61-9.61-8.57c.33-.99.66-1.98,1-3,.66.33,1.32.66,2,1,.66-.66,1.32-1.32,2-2,1.32.99,2.64,1.98,4,3-.66-.99-1.32-1.98-2-3l3-3Z"/>
  <path class="cls-123" d="M28.94,119.21h2c-.12,1.71-.24,3.42-.38,5.12-.07.95-.14,1.9-.21,2.88q-.41,2.99-2.41,8.99c-5.61-.33-11.22-.66-17-1-.66-1.98-1.32-3.96-2-6l-3-1c.99-.99,1.98-1.98,3-3,1.32.66,2.64,1.32,4,2l-3,1q4.45.99,9,2v2c2.31.33,4.62.66,7,1,.13-.84.27-1.69.4-2.55.18-1.1.35-2.19.54-3.32q.26-1.64.53-3.3.54-2.82,1.54-4.82Z"/>
  <path class="cls-124" d="M76.94,114.21q2,1,3,2c.66-.33,1.32-.66,2-1-.66,1.65-1.32,3.3-2,5,.99-.33,1.98-.66,3-1,.33,2.97.66,5.94,1,9-3.31,1.1-5.25.93-8.69.56q-1.49-.15-3.01-.31c-.76-.08-1.52-.17-2.3-.25v-3h3v-2q-2.97-.49-6-1v-3c3.49,1.11,6.77,2.26,10,4-.33-1.65-.66-3.3-1-5h-2v-2h3v-2Z"/>
  <path class="cls-24" d="M137.94,125.21l2,1c-.1.78-.21,1.57-.31,2.38.39,4.51,2.07,7.52,4.22,11.45q1.09,2.17,1.09,4.17c-.99-.33-1.98-.66-3-1v2h-3q-1.82-2.3-3.69-5.31c-.62-.99-1.25-1.97-1.89-2.99q-1.43-2.7-1.43-5.7h2c.33-1.32.66-2.64,1-4h2l1-2Z"/>
  <path class="cls-20" d="M35.94,127.21l2,1c-.33,3.3-.66,6.6-1,10,.66-2.64,1.32-5.28,2-8h2c-.48,5.57-1.3,10.67-3,16-1.98.33-3.96.66-6,1-.66-.99-1.32-1.98-2-3q-3.96.5-8,1c-.33-1.65-.66-3.3-1-5,1.42.14,2.83.29,4.25.44q1.18.12,2.39.25c2.18.29,4.24.74,6.36,1.32.06-.66.12-1.33.18-2.01q.83-8.77,1.82-12.99Z"/>
  <path class="cls-26" d="M129.94,41.21l5,5c.62.52,1.24,1.03,1.88,1.56q.56.71,1.12,1.44-.31,2.19-1,4h-2c.33,1.98.66,3.96,1,6h-2c-.33-2.31-.66-4.62-1-7h-11c1.73-3.46,5.6-4.38,9-6q-4.45,1.49-9,3,4.62-5.75,8-8Z"/>
  <path class="cls-93" d="M76.94,1.21v3q-4.34,4-7,4c-1.36.96-2.7,1.96-4,3l-3-2q-2.24,2.67-1.81,4.94c.93,2.37,2.2,4.1,3.81,6.06-3.48-1.39-4.48-2.63-6-6l-2-1c1.62-4.99,3.7-6.79,8.25-9.19q.87-.4,1.75-.81c.33.33.66.66,1,1,.33-.66.66-1.32,1-2,2.65-.59,5.29-.74,8-1Z"/>
  <path class="cls-109" d="M76.94,3.21q0,3-2,6c.99-.66,1.98-1.32,3-2-1.37,2.95-2.88,5.52-5,8h-2v-2h-2l2,4c-1.32-.33-2.64-.66-4-1,1.98,2.31,3.96,4.62,6,7-3.94-1.97-6.12-3.72-9-7v-3h-3v-3c.99-.66,1.98-1.32,3-2,.99.66,1.98,1.32,3,2,.78-.66,1.57-1.32,2.38-2q2.62-2,4.62-2,1.63-1.46,3-3Z"/>
  <path class="cls-65" d="M49.94,138.21h4v2h3c.26,5.91-.7,11.24-2,17-4.38-.52-8.69-1.06-13-2l-1-3c1.32-.33,2.64-.66,4-1l1,2c1.32.33,2.64.66,4,1,.99-4.62,1.98-9.24,3-14h-2c-.33.99-.66,1.98-1,3v-5Z"/>
  <path class="cls-61" d="M1.94,116.21c5.61.33,11.22.66,17,1,.33,1.32.66,2.64,1,4h-3l4,1v3c-5.94-.99-11.88-1.98-18-3-.33-1.98-.66-3.96-1-6Z"/>
  <path class="cls-111" d="M131.94,129.21l2,2h-2q2.51,5.34,5.75,10.25,1.25,1.75,1.25,5.75c-4.88-2.17-9.3-5.32-12-10q-.19-2.75,0-5h3c.66-.99,1.32-1.98,2-3Z"/>
  <path class="cls-138" d="M118.94,22.21h14v2c.66.66,1.32,1.32,2,2q-6.44.49-13,1v14h-1c.01-1.22.02-2.43.04-3.68,0-1.58.02-3.17.03-4.75,0-.8.02-1.6.03-2.43,0-2.04-.04-4.09-.09-6.13l-1-1v15h-2l1-16Z"/>
  <path class="cls-59" d="M144.94,121.21c.7,1.6,1.38,3.2,2.06,4.81.38.89.77,1.79,1.16,2.71q.78,2.48-.22,5.48c-1.32-3.63-2.64-7.26-4-11q-.99.49-2,1c.33,1.65.66,3.3,1,5l-2-4h-3c-.33.99-.66,1.98-1,3h-2l-2,2-3,3-4-3c2.57-2.02,5.06-3.58,8-5,.99-.66,1.98-1.32,3-2-.33-.66-.66-1.32-1-2,3.07-1.53,5.7-.55,9,0Z"/>
  <path class="cls-117" d="M99.94,9.21c.33.99.66,1.98,1,3-.33.66-.66,1.32-1,2,.99-.33,1.98-.66,3-1-.51,3.72-1.12,6.73-3,10h-3c-.33-.66-.66-1.32-1-2h-3q.24-6.15,2.4-8.58c1.48-1.21,3.03-2.32,4.6-3.42Z"/>
  <path class="cls-61" d="M19.94,92.21v7c-2.06.34-4.12.67-6.19,1q-1.72.28-3.48.56c-2.84.37-5.48.52-8.33.44v-2c3.63-.99,7.26-1.98,11-3-3.3.66-6.6,1.32-10,2v-2c2.08-.67,4.16-1.34,6.25-2,1.16-.37,2.32-.74,3.52-1.12q3.23-.88,7.23-.88Z"/>
  <path class="cls-1" d="M41.94,132.21h2c.33.99.66,1.98,1,3h2q-.96,10.56-2,15h-3v-3c-.33.33-.66.66-1,1-1.67.04-3.33.04-5,0,.99-.66,1.98-1.32,3-2q1.03-3.33,1.69-7.12c.25-1.28.5-2.56.76-3.88.18-.99.36-1.97.55-2.99Z"/>
  <path class="cls-42" d="M154.94,97.21q1.56,2.81,3,6c-.33.99-.66,1.98-1,3-.33-1.65-.66-3.3-1-5-.9.3-1.81.6-2.74.91-1.18.38-2.36.76-3.57,1.15-1.17.38-2.34.77-3.55,1.16q-3.14.78-6.14-.22.23-1.89,1-4c4.2-2.33,9.21-3.46,14-3Z"/>
  <path class="cls-98" d="M158.94,82.21q-.6,1.86-2,4-2.93,1.3-6.44,2.31-1.73.52-3.5,1.05-3.07.64-6.07-.36v-5l7-1q1.83-.28,3.69-.56,3.31-.44,7.31-.44Z"/>
  <path class="cls-119" d="M1.94,87.21q2,2,2,5c5.28-1.65,10.56-3.3,16-5v4c-3.11,1.69-6.15,2.71-9.56,3.62-.95.26-1.9.52-2.88.79q-2.56.59-5.56.59v-9Z"/>
  <path class="cls-25" d="M118.94,15.21c.99.33,1.98.66,3,1,1.18.29,2.35.58,3.56.88q3.44,1.12,5.44,4.12-5.94.49-12,1v10c-.66-.66-1.32-1.32-2-2q.06-2.35.44-5.06c.22-1.64.42-3.29.56-4.94-.33-.33-.66-.66-1-1-.33,2.64-.66,5.28-1,8h-1q-.12-6.62,1-10c.99-.66,1.98-1.32,3-2Z"/>
  <path class="cls-72" d="M40.94,130.21h1c-.45,5.91-1.16,11.35-3,17h-3v2q-3.19.81-7,1-2.94-2.44-5-5,5.36-2.07,8.31-1.75,1.69.75,2.69,2.75c.99-.33,1.98-.66,3-1,.99-4.95,1.98-9.9,3-15Z"/>
  <path class="cls-51" d="M156.94,75.21c2,3,2.99,5.54,4.12,8.94.35,1.04.71,2.08,1.07,3.15q.8,2.91.8,6.91h-4c-1.05-1.3-2.05-2.63-3-4-.99-.33-1.98-.66-3-1,1.32-.33,2.64-.66,4-1,.33-1.65.66-3.3,1-5h-7q3-2,7-2c-.99-1.32-1.98-2.64-3-4h2v-2Z"/>
  <path class="cls-89" d="M159.94,94.21c.99.33,1.98.66,3,1q1.12,5.62,0,9h-2c-.33,1.65-.66,3.3-1,5-2.02-3.03-3.05-5.75-4.22-9.16q-.73-2.04-2.78-3.84c.97-.14,1.94-.29,2.94-.44q2.93-.24,4.06-1.56Z"/>
  <path class="cls-38" d="M114.94,16.21c.99.33,1.98.66,3,1h-2v6l1-4h6v1h-5c-.33,5.28-.66,10.56-1,16h-2c-.33-.99-.66-1.98-1-3h-3c.48-2.46.96-4.92,1.44-7.38.13-.7.27-1.4.41-2.12q1.04-5.28,2.15-7.51Z"/>
  <path class="cls-30" d="M57.94,6.21h2c-.33,1.09-.66,2.19-1,3.31-1.08,3.99-1.3,5.79,0,9.69-1.32-.66-2.64-1.32-4-2-.66.66-1.32,1.32-2,2v-4q-2.47-.99-5-2c3.08-3.67,5.25-4.57,10-5v-2Z"/>
  <path class="cls-100" d="M93.94,1.21q-.43.84-.88,1.69-1.19,2.27-1.75,4.69c-2.11,4.03-5.66,6.11-9.38,8.62l-1-2c.68-.93,1.36-1.86,2.06-2.81.64-1.05,1.28-2.1,1.94-3.19-.33-.99-.66-1.98-1-3,1.32-.99,2.64-1.98,4-3,.33.66.66,1.32,1,2,.45-.49.91-.99,1.38-1.5q1.62-1.5,3.62-1.5Z"/>
  <path class="cls-14" d="M7.94,115.21h13q2.28,6.96,1,11c-1.6-.11-3.21-.24-4.81-.38q-1.34-.1-2.71-.21-2.48-.41-5.48-2.41c1.63.14,3.25.29,4.88.44.9.08,1.81.16,2.74.25q2.38.32,4.38,1.32v-3c-.76-.05-1.52-.1-2.3-.15q-1.49-.11-3.01-.23c-.99-.07-1.97-.14-2.99-.21q-2.7-.41-5.7-2.41c3.96.33,7.92.66,12,1v-2c-3.63-.33-7.26-.66-11-1v-2Z"/>
  <path class="cls-36" d="M36.94,25.21q10.73,5.15,14,9l-1,3c-4.14-.53-6.27-2.78-9.25-5.56-.89-.83-1.78-1.65-2.7-2.5-.68-.64-1.35-1.28-2.05-1.93l1-2Z"/>
  <path class="cls-144" d="M30.94,122.21h2c-.31,2.1-.62,4.21-.94,6.31q-.26,1.76-.53,3.55-.54,3.14-1.54,6.14c-2.64-.33-5.28-.66-8-1v1h-7v-3c4.54-1.41,8.34-.62,13,0,.99-4.29,1.98-8.58,3-13Z"/>
  <path class="cls-46" d="M21.94,79.21q-1,3-3.06,4.19c-.64.27-1.28.54-1.94.81,1.32-.33,2.64-.66,4-1-.33.99-.66,1.98-1,3q-2.87,1.39-6.44,2.69-1.76.66-3.56,1.32-3,.99-5,.99c-.33-1.65-.66-3.3-1-5,.62.35,1.24.7,1.88,1.06.7.31,1.4.62,2.12.94l2-1c-.33-.66-.66-1.32-1-2,1.79-1.01,3.58-2,5.38-3,1-.56,2-1.11,3.02-1.69q2.6-1.31,4.6-1.31Z"/>
  <path class="cls-34" d="M79.94,6.21c0,3.91-1.51,5.12-4,8,1.12,1.15,2.25,2.29,3.38,3.44.63.64,1.25,1.28,1.9,1.93q1.64,1.71,3.73,2.63v2c-2.56-1.1-4.03-2.04-5.94-4.12-2.59-2.35-3.69-1.96-7.06-1.88q-1.81-1.38-3-3v-2h2v2h2c.23-.56.45-1.11.69-1.69,1.67-2.94,3.87-4.99,6.31-7.31Z"/>
  <path class="cls-101" d="M18.94,104.21v4H.94v-2c2.44-.34,4.87-.67,7.31-1,.69-.1,1.38-.19,2.09-.29,2.89-.39,5.67-.71,8.6-.71Z"/>
  <path class="cls-127" d="M106.94,150.21c.99.33,1.98.66,3,1-1.32,4.62-3.21,8.1-6,12q-2.47-.99-5-2,0-2,1.46-3.51c.63-.53,1.26-1.07,1.91-1.62.63-.54,1.25-1.08,1.9-1.63q1.73-1.24,3.73-1.24c-.33-.99-.66-1.98-1-3Z"/>
  <path class="cls-10" d="M85.94,12.21q0,3-1,5c1.65-.66,3.3-1.32,5-2-.33,1.32-.66,2.64-1,4,1.32-.33,2.64-.66,4-1v3c1.32-.33,2.64-.66,4-1v5l-3-1v-2c-.72-.12-1.44-.25-2.19-.38-4.13-.92-7.29-2.28-10.81-4.62,1.23-2.46,2.78-3.42,5-5Z"/>
  <path class="cls-128" d="M70.94,6.21v3c-.68.64-1.36,1.28-2.06,1.94q-2.14,1.82-2,3.94c1.57,3.14,3.73,5.5,6.06,8.12-3.82-1.56-6.29-3.92-9-7v-3h-3v-3c.99-.66,1.98-1.32,3-2,.99.66,1.98,1.32,3,2l4-4Z"/>
  <path class="cls-31" d="M65.94,3.21c.33.99.66,1.98,1,3q-2.97,2.47-6,5c1.06,3.4,2.01,6.01,4,9-3.48-1.39-4.48-2.63-6-6l-2-1c1.28-3.95,2.5-5.77,6-8,.99-.66,1.98-1.32,3-2Z"/>
  <path class="cls-122" d="M142.94,122.21c3.15,1.57,3.54,4.72,4.62,7.88.23.64.46,1.28.7,1.93,1,2.86,1.68,5.13,1.68,8.19h-2c-2.31-5.61-4.62-11.22-7-17l2-1Z"/>
  <path class="cls-18" d="M156.94,92.21h3v3c-2.49,2.49-4.29,2.37-7.69,2.71-3.83.47-7.56,1.39-11.31,2.29v-2q1.61-.52,3.25-1.06c1.4-.46,2.79-.92,4.19-1.38q1.06-.35,2.14-.7,3.48-.94,6.42-2.87Z"/>
  <path class="cls-39" d="M101.94,148.21l4,4q-4.46,3.96-9,8c-1.32-.66-2.64-1.32-4-2v-2q6.62-3,10-3c-.33-1.65-.66-3.3-1-5Z"/>
  <path class="cls-18" d="M.94,109.21h18v3c-6.11.1-11.97.07-18-1v-2Z"/>
  <path class="cls-46" d="M127.94,36.21c1.65.73,3.3,1.49,4.94,2.25.92.42,1.83.84,2.78,1.27q2.29,1.48,3.1,3.66c.06.6.12,1.21.18,1.83l-3,1c-1.65-1.98-3.3-3.96-5-6-2.49,1.2-4.68,2.45-7,4,1.12-2.97,2.22-5.33,4-8Z"/>
  <path class="cls-140" d="M96.94,144.21c2.62,3.06,3,3.73,3,8-1.43.67-2.87,1.34-4.31,2q-1.2.56-2.43,1.12-2.26.88-5.26.88c-.33-1.32-.66-2.64-1-4h10v-8Z"/>
  <path class="cls-55" d="M38.94,130.21h2c-.48,5.57-1.3,10.67-3,16-1.98.33-3.96.66-6,1l-1-3c1.65-.33,3.3-.66,5-1,.99-4.29,1.98-8.58,3-13Z"/>
  <path class="cls-117" d="M19.94,56.21h4c-.31.72-.62,1.44-.94,2.19-.99,2.62-1.59,5.06-2.06,7.81q1.24.71,2.5,1.44c.82.52,1.65,1.03,2.5,1.56v1c-2.64-.33-5.28-.66-8-1,.14-1.6.29-3.21.44-4.81.08-.89.16-1.79.25-2.71q.32-2.48,1.32-5.48Z"/>
  <path class="cls-102" d="M11.94,63.21q.07,1.28.15,2.59c.07,1.1.15,2.21.23,3.35.07,1.1.14,2.2.21,3.34.14.9.27,1.8.41,2.72.66.33,1.32.66,2,1-.99.33-1.98.66-3,1-.84-1.6-1.67-3.21-2.5-4.81q-.7-1.34-1.41-2.71-1.09-2.48-1.09-5.48,2-1,5-1Z"/>
  <path class="cls-102" d="M125.94,32.21c4.29.66,8.58,1.32,13,2-.33,1.65-.66,3.3-1,5-.7-.29-1.4-.58-2.12-.88-2.93-1.15-5.88-2.15-8.88-3.12-.66.66-1.32,1.32-2,2,.33-1.65.66-3.3,1-5Z"/>
  <path class="cls-108" d="M54.94,140.21h2c.24,5.63-.61,10.55-2,16h-3c.59-5.51,1.57-10.65,3-16Z"/>
  <path class="cls-55" d="M123.94,134.21c3.93,1.31,5.37,3.82,7.69,7.06.42.57.83,1.14,1.26,1.72,1.02,1.4,2.04,2.81,3.05,4.22l-2,2c-1.34-1.45-2.67-2.91-4-4.38-.74-.81-1.49-1.62-2.25-2.46q-1.75-2.16-1.75-4.16h-2c-.33-.99-.66-1.98-1-3l1-1Z"/>
  <path class="cls-104" d="M131.94,131.21c3.1,1.06,3.97,1.96,5.7,4.82.51,1.09,1.02,2.18,1.55,3.3q.78,1.64,1.58,3.32.58,1.26,1.17,2.55h-3q-1.82-2.3-3.69-5.31-.93-1.48-1.89-2.99-1.43-2.7-1.43-5.7Z"/>
  <path class="cls-144" d="M146.94,119.21l6,18c-.99-.33-1.98-.66-3-1-.96-2.32-1.76-4.54-2.5-6.94q-1.52-5.32-5.5-9.06,3-1,5-1Z"/>
  <path class="cls-5" d="M1.94,113.21h18v3c-5.94-.33-11.88-.66-18-1v-2Z"/>
  <path class="cls-55" d="M106.94,8.21l2,1c-1.66,5.86-3.47,11.46-6,17-.99-.66-1.98-1.32-3-2,.79-1.92,1.58-3.83,2.38-5.75q.66-1.6,1.34-3.23c1.02-2.39,2.09-4.71,3.29-7.02Z"/>
  <path class="cls-69" d="M18.94,100.21v3c-3.84.9-7.38,1.11-11.31,1.06-1.07,0-2.14-.02-3.24-.03-.81-.01-1.62-.02-2.45-.04v-2c2.46-.33,4.92-.67,7.38-1,.7-.1,1.4-.19,2.12-.29q5.28-.71,7.51-.71Z"/>
  <path class="cls-142" d="M157.94,79.21v2c-2.08.7-4.16,1.38-6.25,2.06-1.16.38-2.32.77-3.52,1.16-3.04.73-4.39.9-7.23-.22,2.84-1.89,5.32-3,8.5-4.19.96-.36,1.92-.73,2.91-1.11q2.59-.71,5.59.29Z"/>
  <path class="cls-104" d="M108.94,11.21c.99.33,1.98.66,3,1-1.65,5.28-3.3,10.56-5,16-.99-.33-1.98-.66-3-1,1.65-5.28,3.3-10.56,5-16Z"/>
  <path class="cls-118" d="M33.94,125.21l2,1c-.99,4.95-1.98,9.9-3,15-3.63-.66-7.26-1.32-11-2v-1c2.97.33,5.94.66,9,1,.13-.93.27-1.85.4-2.81.18-1.2.35-2.4.54-3.63.17-1.19.35-2.39.53-3.62q.54-2.94,1.54-3.94Z"/>
  <path class="cls-70" d="M13.94,60.21h3c-.33,3.3-.66,6.6-1,10,1.65.33,3.3.66,5,1-.66.66-1.32,1.32-2,2h-5v-13Z"/>
  <path class="cls-17" d="M118.94,54.21h13v4c-4.38-.52-8.69-1.06-13-2v-2Z"/>
  <path class="cls-99" d="M43.94,21.21c.99.33,1.98.66,3,1v2c.58.27,1.16.54,1.75.81,2.31,1.22,4.27,2.49,6.25,4.19v2l2,1c-4.97,0-5.73-1.17-9.25-4.5-.89-.84-1.78-1.67-2.7-2.53-.68-.65-1.35-1.3-2.05-1.97l1-2Z"/>
  <path class="cls-140" d="M111.94,139.21c3.48,1.52,5.96,3.58,8.75,6.12q1.2,1.09,2.42,2.2c.6.55,1.21,1.11,1.83,1.68q-.38,1.94-1,4l-2,1c.33-1.32.66-2.64,1-4-3.96-2.97-7.92-5.94-12-9l1-2Z"/>
  <path class="cls-76" d="M90.94,135.21h1c-.61,4.34-1.26,8.68-2,13-1.65-.33-3.3-.66-5-1,1.57-4.31,3.68-8.06,6-12Z"/>
  <path class="cls-17" d="M86.94,133.21q-3.96,3.46-8,7l-4-2v-2c1.43-.7,2.87-1.38,4.31-2.06q1.2-.57,2.43-1.16,2.26-.78,5.26.22Z"/>
  <path class="cls-54" d="M123.94,28.21h13v4c-4.38-.52-8.69-1.06-13-2v-2Z"/>
  <path class="cls-15" d="M88.94,133.21c0,3.41-.67,4.39-2.5,7.19-.46.72-.93,1.43-1.41,2.17-.36.54-.72,1.09-1.09,1.64-1.32-.33-2.64-.66-4-1,1.38-3.21,2.92-5.05,5.62-7.25.63-.52,1.26-1.04,1.91-1.58q.72-.58,1.46-1.17Z"/>
  <path class="cls-134" d="M118.94,58.21q8.57,1,12,2c-.33,1.65-.66,3.3-1,5-3.63-1.98-7.26-3.96-11-6v-1Z"/>
  <path class="cls-2" d="M121.94,34.21l3,2c.52-.41,1.03-.83,1.56-1.25q2.44-.75,4.26,0c1.76,1.02,3.47,2.13,5.18,3.24-.66.66-1.32,1.32-2,2l-6-3c-.99,1.32-1.98,2.64-3,4l-1-2q-.99.49-2,1v-6Z"/>
  <path class="cls-41" d="M111.94,150.21l2,1c-.66,1.98-1.32,3.96-2,6,.33.33.66.66,1,1-.66,1.65-1.32,3.3-2,5h-5c1.69-4.5,3.82-8.73,6-13Z"/>
  <path class="cls-142" d="M50.94,140.21h2c.23,5.42-.53,9.77-2,15-.99-.66-1.98-1.32-3-2,.99-4.29,1.98-8.58,3-13Z"/>
  <path class="cls-37" d="M111.94,13.21h2c-.99,5.28-1.98,10.56-3,16-.99.33-1.98.66-3,1,1.09-5.76,2.29-11.39,4-17Z"/>
  <path class="cls-55" d="M54.94,16.21q2,1.38,4,3v2c.58.27,1.16.54,1.75.81,2.28,1.2,4.22,2.6,6.25,4.19l-1,3c-.45-.39-.89-.77-1.36-1.17-3.5-3.01-7.02-5.97-10.64-8.83.33-.99.66-1.98,1-3Z"/>
  <path class="cls-132" d="M154.94,101.21c-.33.99-.66,1.98-1,3-2.38.88-4.61,1.57-7.06,2.19-.66.18-1.33.35-2.01.54-1.64.44-3.28.86-4.93,1.28v-3c1.94-.67,3.87-1.34,5.81-2,1.08-.37,2.16-.74,3.27-1.12q2.92-.88,5.92-.88Z"/>
  <path class="cls-90" d="M4.94,67.21c2.79,2.41,3.9,4.76,5.19,8.19.34.9.69,1.8,1.04,2.73.25.69.51,1.37.77,2.08h-3c-.87-1.41-1.72-2.83-2.56-4.25q-.71-1.18-1.44-2.39c-1.13-2.67-1.01-3.7,0-6.36Z"/>
  <path class="cls-43" d="M39.94,55.21h4c-.55,4.03-1.16,8.02-2,12h-2v-12Z"/>
  <path class="cls-101" d="M28.94,58.21q3,1,4.75,4.38,1.25,3.62.25,6.62c-2.31-2.64-4.62-5.28-7-8,.66-.99,1.32-1.98,2-3Z"/>
  <path class="cls-104" d="M63.94,12.21c.08.58.16,1.17.25,1.77.98,2.92,2.46,4.04,4.82,5.98.73.61,1.47,1.23,2.22,1.86q.85.69,1.71,1.39l-1,3c-.99-.66-1.98-1.32-3-2v-2c-.58-.23-1.15-.45-1.75-.69-2.82-1.64-4.33-3.71-6.25-6.31l3-3Z"/>
  <path class="cls-22" d="M118.94,61.21c1.49.76,2.96,1.53,4.44,2.31q1.24.64,2.5,1.3,2.07,1.39,3.07,4.39l-1,2c-3.25-1.08-4.04-1.89-6.19-4.44q-.79-.93-1.61-1.87-1.21-1.69-1.21-3.69Z"/>
  <path class="cls-28" d="M37.94,56.21v12c-2.23-2.23-2.69-3.66-3.62-6.62-.26-.82-.52-1.63-.79-2.48-.19-.63-.39-1.25-.59-1.9q2-1,5-1Z"/>
  <path class="cls-143" d="M131.94,47.21c.33,1.65.66,3.3,1,5h-11c1.72-3.43,6.24-5,10-5Z"/>
  <path class="cls-142" d="M115.94,138.21c3.68,1.54,5.99,3.78,8.75,6.62.8.82,1.6,1.63,2.42,2.48q.9.94,1.83,1.9l-2,2c-1.16-1.16-2.33-2.33-3.49-3.5-1.05-1.04-2.11-2.08-3.18-3.1-1.48-1.43-2.91-2.91-4.33-4.4v-2Z"/>
  <path class="cls-4" d="M86.94,131.21h2c-.56,3.54-1.66,4.92-4.44,7.12-1.96,1.58-3.78,3.09-5.56,4.88v-2l-2-1c.64-.48,1.28-.96,1.93-1.46.83-.63,1.65-1.26,2.5-1.91.82-.63,1.65-1.25,2.5-1.9q2.15-1.56,3.07-3.73Z"/>
  <path class="cls-63" d="M71.94,130.21h11c-3.56,2.67-5.85,3.77-10,5-.33-1.65-.66-3.3-1-5Z"/>
  <path class="cls-122" d="M149.94,105.21h4c.87,2.43,1.72,4.87,2.56,7.31.25.69.49,1.38.75,2.09q1.8,5.26.69,8.6c-.84-2.29-1.67-4.58-2.5-6.88-.24-.65-.48-1.3-.72-1.97q-1.78-4.93-1.78-7.15c-1.65.33-3.3.66-5,1,.66-.99,1.32-1.98,2-3Z"/>
  <path class="cls-136" d="M18.94,87.21l2,1v2c-2.27.7-4.54,1.38-6.81,2.06-.64.2-1.29.4-1.95.6q-4.9,1.45-8.24.33c2.45-1.03,4.91-2.05,7.38-3.06q1.05-.44,2.12-.89c1.81-.74,3.66-1.4,5.51-2.04Z"/>
  <path class="cls-40" d="M3.94,80.21q3,3.75,3,6c1.32.33,2.64.66,4,1-1.65.66-3.3,1.32-5,2-.33-.99-.66-1.98-1-3h-2c-.33-1.65-.66-3.3-1-5l2-1Z"/>
  <path class="cls-21" d="M95.94,8.21q1,3,.11,5.04c-.45.71-.9,1.42-1.36,2.14-.44.72-.88,1.43-1.33,2.17-.47.54-.94,1.09-1.42,1.64h-3c1.49-4.59,3.85-7.44,7-11Z"/>
  <path class="cls-57" d="M47.94,136.21h3c-.66,3.96-1.32,7.92-2,12-.99.33-1.98.66-3,1,.52-4.38,1.06-8.69,2-13Z"/>
  <path class="cls-120" d="M143.94,131.21c3.36,3.36,4,6.29,4,11q-2.48-.99-5-2c.33-2.97.66-5.94,1-9Z"/>
  <path class="cls-66" d="M142.94,92.21l4,1h-3c.33.66.66,1.32,1,2,.61-.22,1.23-.43,1.86-.66.81-.28,1.62-.56,2.45-.84.8-.28,1.6-.56,2.43-.84q2.26-.66,5.26-.66-1,2-4.16,3.07c-1.3.36-2.6.71-3.9,1.05-.66.18-1.33.36-2.01.55-1.64.45-3.28.89-4.93,1.32-.33-1.32-.66-2.64-1-4h2v-2Z"/>
  <path class="cls-44" d="M155.94,89.21c.33.99.66,1.98,1,3q-6.43,1.98-13,4v-3c3.96-1.32,7.92-2.64,12-4Z"/>
  <path class="cls-13" d="M25.94,59.21c2.22,2.14,4.21,4.27,6.12,6.69q1.67,2.38,3.88,3.31l-1,2h-3q-1.86-1.86-3.75-4.31-.95-1.2-1.92-2.43c-.44-.75-.88-1.49-1.33-2.26.33-.99.66-1.98,1-3Z"/>
  <path class="cls-101" d="M23.94,61.21c3.63,2.65,5.9,5.02,8,9-3.59-1.33-6.75-2.96-10-5l2-4Z"/>
  <path class="cls-68" d="M92.94,137.21c1.87,3.74,2.24,4.84,2.12,8.75-.02.8-.04,1.6-.05,2.42q-.03.9-.07,1.83h-4c.66-4.29,1.32-8.58,2-13Z"/>
  <path class="cls-142" d="M101.94,13.21c1.39,4.18-.18,6.13-2,10h-3c.55-3.33,1.24-6.1,3-9l2-1Z"/>
  <path class="cls-63" d="M156.94,74.21v3c-3.62,1.32-6.1,2-10,2,.33-.99.66-1.98,1-3,3.17-1.31,5.56-2,9-2Z"/>
  <path class="cls-97" d="M46.94,54.21l4,2c-.81,1.34-1.62,2.67-2.44,4-.45.74-.9,1.49-1.37,2.25-.39.58-.79,1.15-1.19,1.75h-1c.14-1.48.29-2.96.44-4.44.08-.82.16-1.65.25-2.5q.32-2.07,1.32-3.07Z"/>
  <path class="cls-52" d="M129.94,41.21c.99,1.32,1.98,2.64,3,4-1.45.7-2.91,1.38-4.38,2.06-.81.38-1.62.77-2.46,1.16-.71.26-1.43.51-2.16.78-.66-.33-1.32-.66-2-1,2.64-2.31,5.28-4.62,8-7Z"/>
  <path class="cls-116" d="M51.94,9.21l4,4c-.99.99-1.98,1.98-3,3-1.65-.99-3.3-1.98-5-3l4-4Z"/>
  <path class="cls-131" d="M20.94,140.21c2.97.33,5.94.66,9,1v3c-2.64.33-5.28.66-8,1-.33-1.65-.66-3.3-1-5Z"/>
  <path class="cls-125" d="M135.94,125.21l1,2c-.6.43-1.2.87-1.81,1.31-1.9,1.46-3.54,2.96-5.19,4.69-1.32-.99-2.64-1.98-4-3,3.13-2.64,6.09-3.84,10-5Z"/>
  <path class="cls-86" d="M156.94,82.21c-.33.99-.66,1.98-1,3q-2.29.95-5.06,1.69-1.38.38-2.79.76c-.71.18-1.42.36-2.15.55v-3c1.46-.5,2.92-1,4.38-1.5.81-.28,1.62-.56,2.46-.84q2.16-.66,4.16-.66Z"/>
  <path class="cls-7" d="M118.94,59.21c3.59,1.33,6.75,2.96,10,5-.33.99-.66,1.98-1,3-2.97-1.65-5.94-3.3-9-5v-3Z"/>
  <path class="cls-135" d="M44.94,151.21l1,2q2.11.91,4.56,1.62c.83.26,1.65.52,2.5.79q.96.29,1.93.59c-3.19,1.02-5.42.96-8.69.25q-1.18-.24-2.39-.48c-.64-.25-1.27-.51-1.93-.77-.33-.99-.66-1.98-1-3q2-1,4-1Z"/>
  <path class="cls-49" d="M103.94,142.21c2.87,1.38,5.56,2.92,8.25,4.62.71.45,1.41.89,2.14,1.35.53.34,1.06.68,1.61,1.02q-3.72,1.12-6.25.06-.87-.53-1.75-1.06l1-1q-1.24-.68-2.5-1.38c-.83-.54-1.65-1.07-2.5-1.62v-2Z"/>
  <path class="cls-35" d="M160.94,104.21q1.12,1.56,2,4-.88,3.75-2,7c-2.13-3.19-2.5-5.27-3-9h2l1-2Z"/>
  <path class="cls-50" d="M122.94,28.21l1,2q2.13.47,4.56.62c.83.07,1.65.15,2.5.23.64.05,1.28.1,1.93.15v2c-2.31-.33-4.62-.66-7-1l-1,2c-.66-.33-1.32-.66-2-1v-5Z"/>
  <path class="cls-120" d="M76.94,114.21q2,1,3,2c.66-.33,1.32-.66,2-1-1.25,3.65-1.67,4.78-5,7-.33-1.32-.66-2.64-1-4h-2v-2h3v-2Z"/>
  <path class="cls-75" d="M15.94,93.21v2c-4.29.99-8.58,1.98-13,3v-2c1.41-.51,2.83-1.01,4.25-1.5.79-.28,1.58-.56,2.39-.84q2.36-.66,6.36-.66Z"/>
  <path class="cls-105" d="M15.94,92.21h4v7h-4c-1.04-3.13-.93-3.99,0-7Z"/>
  <path class="cls-39" d="M118.94,66.21c2.96,2.81,5.44,5.18,7,9h-4c-.99-2.97-1.98-5.94-3-9Z"/>
  <path class="cls-107" d="M80.94,43.21l4,1c.66,2.97,1.32,5.94,2,9-.99-.33-1.98-.66-3-1q-.95-2.07-1.69-4.56c-.25-.83-.5-1.65-.76-2.5-.18-.64-.36-1.28-.55-1.93Z"/>
  <path class="cls-73" d="M85.94,12.21q0,3-1,5c1.65-.66,3.3-1.32,5-2q-1,3-3.06,4.19c-.64.27-1.28.54-1.94.81-1.32-.99-2.64-1.98-4-3,1.23-2.46,2.78-3.42,5-5Z"/>
  <path class="cls-126" d="M46.94,13.21c1.98.66,3.96,1.32,6,2-1.32,1.65-2.64,3.3-4,5v-2c-.99-.33-1.98-.66-3-1l1-4Z"/>
  <path class="cls-53" d="M48.94,143.21h1c-.33,3.3-.66,6.6-1,10-1.65.33-3.3.66-5,1l3-6h2v-5Z"/>
  <path class="cls-62" d="M107.94,141.21c4.98,1.51,8.24,4.56,12,8-3.59,0-4.75-.9-7.69-2.88-.81-.53-1.62-1.07-2.45-1.62-.61-.5-1.23-1-1.86-1.51v-2Z"/>
  <path class="cls-103" d="M11.94,121.21c2.97.33,5.94.66,9,1v3c-3.3-.66-6.6-1.32-10-2l1-2Z"/>
  <path class="cls-107" d="M6.94,118.21v2c1.65.33,3.3.66,5,1-.33.66-.66,1.32-1,2-2.64-.33-5.28-.66-8-1v-3q2-1,4-1Z"/>
  <path class="cls-117" d="M109.94,107.21h10c-.33,1.32-.66,2.64-1,4q-4.45-.99-9-2v-2Z"/>
  <path class="cls-32" d="M10.94,105.21c-.33.99-.66,1.98-1,3H.94v-2c3.38-1.04,6.48-1.08,10-1Z"/>
  <path class="cls-71" d="M161.94,99.21h2c-.33,1.65-.66,3.3-1,5h-2c-.33,1.65-.66,3.3-1,5q-2-3-1.62-5.69c.21-.76.41-1.53.62-2.31h2l1-2Z"/>
  <path class="cls-121" d="M70.94,17.21q2.69-.31,6,0,2.88,2.5,5,5c-.33.66-.66,1.32-1,2-1.98-1.65-3.96-3.3-6-5v2h-2v-2h-2v-2Z"/>
  <path class="cls-23" d="M80.94,121.21q1.5,1.25,3,3v4c-.99.33-1.98.66-3,1q-1-1-1.12-4,.12-3,1.12-4Z"/>
  <path class="cls-112" d="M159.94,94.21l1,2c-.94,2.36-1.93,4.7-3,7-.66-.99-1.32-1.98-2-3-.99-1.34-1.99-2.67-3-4,.97-.14,1.94-.29,2.94-.44q2.93-.24,4.06-1.56Z"/>
  <path class="cls-46" d="M159.94,92.21v3q-2,2-5.12,2.12-1.42-.06-2.88-.12v-3c2.91-1.26,4.8-2,8-2Z"/>
  <path class="cls-114" d="M21.94,79.21q-1,3-2.78,4.13c-.71.33-1.43.65-2.16.99-.71.33-1.42.67-2.15,1.01-.63.29-1.26.57-1.91.87l-2,1c-.66-.66-1.32-1.32-2-2,1.79-1.01,3.58-2,5.38-3,1-.56,2-1.11,3.02-1.69q2.6-1.31,4.6-1.31Z"/>
  <path class="cls-94" d="M41.94,62.21h3v4c.64.12,1.28.25,1.94.38.68.21,1.36.41,2.06.62.33.66.66,1.32,1,2h-7c-.33-2.31-.66-4.62-1-7Z"/>
  <path class="cls-115" d="M116.94,155.21h3v3c-2.31,2.07-4.03,3.01-7,4,1.2-2.49,2.45-4.68,4-7Z"/>
  <path class="cls-133" d="M102.94,142.21l1,2q1.24.49,2.5,1,2.5,1,3.5,3h-2v2h-2c-.33-.99-.66-1.98-1-3q-1.5-1.67-3-3l1-2Z"/>
  <path class="cls-95" d="M146.94,100.21c-1.65.33-3.3.66-5,1v2q3.47-.49,7-1c-2.92,1.95-4.63,2.45-8,3-.33-.99-.66-1.98-1-3,1.73-3.47,3.59-3.14,7-2Z"/>
  <path class="cls-67" d="M51.94,98.21l2,1q-5,6.57-10,8c.96-1.13,1.92-2.25,2.88-3.38.53-.63,1.07-1.25,1.62-1.9,1.12-1.28,2.3-2.52,3.51-3.73Z"/>
  <path class="cls-110" d="M159.94,86.21c.33.99.66,1.98,1,3q-.99,1.49-2,3h-2l-1-2c-.99-.33-1.98-.66-3-1q4.75-3,7-3Z"/>
  <path class="cls-96" d="M128.94,39.21c3.37,1.39,4.99,2.98,7,6h-3l-3-3h-3c.66-.99,1.32-1.98,2-3Z"/>
  <path class="cls-101" d="M69.94,125.21q4.95.99,10,2v1h-10v-3Z"/>
  <path class="cls-60" d="M20.94,107.21c.33.99.66,1.98,1,3h2v7h-2c-.33-3.3-.66-6.6-1-10Z"/>
  <path class="cls-75" d="M150.94,99.21v2c-2.97.66-5.94,1.32-9,2v-2c3.37-1.5,5.2-2,9-2Z"/>
  <path class="cls-91" d="M156.94,86.21v2c-1.32.33-2.64.66-4,1v2c-1.98.33-3.96.66-6,1q5.85-6,10-6Z"/>
  <path class="cls-45" d="M117.94,72.21q1.56,1.69,3,4-.31,2.75-1,5h-2v-9Z"/>
  <path class="cls-55" d="M17.94,66.21c3.69.5,5.6,1.1,8,4-2.64-.33-5.28-.66-8-1v-3Z"/>
  <path class="cls-56" d="M53.94,55.21c.99.33,1.98.66,3,1-1.65,1.98-3.3,3.96-5,6-.66-.33-1.32-.66-2-1,1.32-1.98,2.64-3.96,4-6Z"/>
  <path class="cls-27" d="M87.94,7.21c0,4.39-2.13,5.77-5,9l-2-2,7-7Z"/>
  <path class="cls-81" d="M105.94,150.21l2,1v2q-1.75,1.51-4,3.12c-.74.54-1.48,1.08-2.25,1.63-.58.41-1.16.82-1.75,1.24v-3c1.63-1.38,3.3-2.71,5-4l1-2Z"/>
  <path class="cls-133" d="M37.94,63.21h2v4h2v2h-3c-.33.66-.66,1.32-1,2-1.1-3.29-.8-4.71,0-8Z"/>
  <path class="cls-77" d="M96.94,2.21c-.66,2.31-1.32,4.62-2,7-.33-.99-.66-1.98-1-3-.99.33-1.98.66-3,1q2.26-5,6-5Z"/>
  <path class="cls-137" d="M90.94,131.21l2,2c-1,2.99-1.75,3.95-4,6,0-3.77.24-4.91,2-8Z"/>
  <path class="cls-106" d="M141.94,124.21c.33,1.65.66,3.3,1,5-.66-1.32-1.32-2.64-2-4h-3c-.33.99-.66,1.98-1,3v-3c-.99-.33-1.98-.66-3-1,3.29-1.1,4.71-.8,8,0Z"/>
  <path class="cls-58" d="M66.94,119.21c4.11,1.19,5.89,1.89,9,5q-4.45-.99-9-2v-3Z"/>
  <path class="cls-54" d="M10.94,102.21q-2,2-5.62,2.12c-1.11-.04-2.23-.08-3.38-.12v-2q5.62-1.12,9,0Z"/>
  <path class="cls-88" d="M105.94,73.21c2.31.33,4.62.66,7,1,.33,1.32.66,2.64,1,4-3.38-1.19-5.65-2.28-8-5Z"/>
  <path class="cls-24" d="M14.94,68.21l1,2q2.53.66,5,1-2,2-4.62,2.12c-.78-.04-1.57-.08-2.38-.12.33-1.65.66-3.3,1-5Z"/>
  <path class="cls-8" d="M21.94,65.21q2.47.99,5,2v3c.66.33,1.32.66,2,1h-5l1-2c-1.32-.99-2.64-1.98-4-3l1-1Z"/>
  <path class="cls-78" d="M119.94,66.21q1.88.31,4,1c.66.99,1.32,1.98,2,3-.33.99-.66,1.98-1,3q-5-5.88-5-7Z"/>
  <path class="cls-64" d="M108.94,11.21c.99.33,1.98.66,3,1q-.81,2.94-2,6c-.99.33-1.98.66-3,1l2-8Z"/>
  <path class="cls-48" d="M100.94,7.21l2,1c-.66,1.32-1.32,2.64-2,4-.33-.66-.66-1.32-1-2-1.32.99-2.64,1.98-4,3q.81-2.44,2-5c.99-.33,1.98-.66,3-1Z"/>
  <path class="cls-87" d="M37.94,150.21c.99.33,1.98.66,3,1v3c-2.31-.33-4.62-.66-7-1q1.81-1.56,4-3Z"/>
  <path class="cls-11" d="M142.94,121.21v2c-1.32.33-2.64.66-4,1v-2c-.99-.33-1.98-.66-3-1,2.67-1.33,4.17-.67,7,0Z"/>
  <path class="cls-29" d="M39.94,55.21h4c-.33,1.65-.66,3.3-1,5h-2c-.33-1.65-.66-3.3-1-5Z"/>
  <path class="cls-45" d="M132.94,45.21c1.65,1.32,3.3,2.64,5,4-.33,1.32-.66,2.64-1,4-2.15-2.62-3.4-4.64-4-8Z"/>
  <path class="cls-48" d="M85.94,19.21q5.75,1.75,8,4-3,1-5.69-.31c-.76-.56-1.53-1.11-2.31-1.69v-2Z"/>
  <path class="cls-30" d="M87.94.21q2.12.94,4,2c-1.32.99-2.64,1.98-4,3-.33-.66-.66-1.32-1-2q-.99.49-2,1c.33-.99.66-1.98,1-3l2-1Z"/>
</svg>